<svg xmlns="http://www.w3.org/2000/svg" width="1080" height="390" viewBox="0 0 1080 390" role="img" aria-labelledby="title desc">
  <title id="title">Unified bakery SVG icon system</title>
  <desc id="desc">Thirty bakery related icons in a consistent flat filled style, arranged in a ten by three grid.</desc>
  <rect width="1080" height="390" fill="#F5F2EA"/>
  <style>
    text {
      font-family: system-ui, -apple-system, BlinkMacSystemFont, "Segoe UI", sans-serif;
      font-size: 11px;
      font-weight: 600;
      fill: #111111;
    }
  </style>
  <g transform="translate(0,0)">
    <circle cx="54" cy="58" r="38" stroke="#111111" stroke-width="2" fill="none"/>
    <g transform="translate(4,10)">

      <path fill="#111111" d="M30 48c0-10 8-18 20-18s20 8 20 18v15c0 4-3 7-7 7H37c-4 0-7-3-7-7V48z"/>
      <rect fill="#111111" x="33" y="49" width="34" height="18" rx="6"/>
    </g>
    <text x="54" y="106" text-anchor="middle">Bread</text>
  </g>
  <g transform="translate(108,0)">
    <circle cx="54" cy="58" r="38" stroke="#111111" stroke-width="2" fill="none"/>
    <g transform="translate(4,10)">

      <g transform="rotate(-28 50 48)">
        <rect fill="#111111" x="27" y="39" width="46" height="18" rx="9"/>
        <rect fill="#F5F2EA" x="37" y="42" width="8" height="3" rx="1.5"/>
        <rect fill="#F5F2EA" x="49" y="42" width="8" height="3" rx="1.5"/>
        <rect fill="#F5F2EA" x="61" y="42" width="8" height="3" rx="1.5"/>
      </g>
    </g>
    <text x="54" y="106" text-anchor="middle">Baguette</text>
  </g>
  <g transform="translate(216,0)">
    <circle cx="54" cy="58" r="38" stroke="#111111" stroke-width="2" fill="none"/>
    <g transform="translate(4,10)">

      <path fill="#111111" d="M24 53c6-14 18-22 31-20 13 2 23 11 25 25-7-7-14-10-22-10-12 0-23 5-34 5z"/>
      <path fill="#F5F2EA" d="M37 51c7-7 17-11 27-7 3 1 6 3 9 6-7-2-14-1-21 1-5 2-10 3-15 0z"/>
    </g>
    <text x="54" y="106" text-anchor="middle">Croissant</text>
  </g>
  <g transform="translate(324,0)">
    <circle cx="54" cy="58" r="38" stroke="#111111" stroke-width="2" fill="none"/>
    <g transform="translate(4,10)">

      <path fill="#111111" fill-rule="evenodd" d="M50 27a21 21 0 1 1 0 42 21 21 0 0 1 0-42zm0 13a8 8 0 1 0 0 16 8 8 0 0 0 0-16z"/>
      <circle fill="#F5F2EA" cx="42" cy="38" r="2"/>
      <circle fill="#F5F2EA" cx="59" cy="57" r="2"/>
      <circle fill="#F5F2EA" cx="62" cy="39" r="1.8"/>
    </g>
    <text x="54" y="106" text-anchor="middle">Donut</text>
  </g>
  <g transform="translate(432,0)">
    <circle cx="54" cy="58" r="38" stroke="#111111" stroke-width="2" fill="none"/>
    <g transform="translate(4,10)">

      <path fill="#111111" d="M35 45c-2-10 5-18 15-18s17 8 15 18H35z"/>
      <path fill="#111111" d="M33 48h34l-5 22H38l-5-22z"/>
      <rect fill="#F5F2EA" x="39" y="53" width="3" height="13" rx="1.5"/>
      <rect fill="#F5F2EA" x="49" y="53" width="3" height="13" rx="1.5"/>
      <rect fill="#F5F2EA" x="59" y="53" width="3" height="13" rx="1.5"/>
    </g>
    <text x="54" y="106" text-anchor="middle">Cupcake</text>
  </g>
  <g transform="translate(540,0)">
    <circle cx="54" cy="58" r="38" stroke="#111111" stroke-width="2" fill="none"/>
    <g transform="translate(4,10)">

      <rect fill="#111111" x="31" y="45" width="38" height="22" rx="4"/>
      <path fill="#111111" d="M34 39h32a5 5 0 0 1 5 5v4H29v-4a5 5 0 0 1 5-5z"/>
      <rect fill="#F5F2EA" x="36" y="53" width="28" height="4" rx="2"/>
      <rect fill="#111111" x="47" y="28" width="6" height="10" rx="3"/>
    </g>
    <text x="54" y="106" text-anchor="middle">Cake</text>
  </g>
  <g transform="translate(648,0)">
    <circle cx="54" cy="58" r="38" stroke="#111111" stroke-width="2" fill="none"/>
    <g transform="translate(4,10)">

      <path fill="#111111" d="M30 47c2-10 10-17 20-17s18 7 20 17v3H30v-3z"/>
      <path fill="#111111" d="M32 52h36l-5 15H37l-5-15z"/>
      <path fill="#F5F2EA" d="M39 39l6-5 5 5-5 5-6-5zm14 0l5-5 6 5-6 5-5-5z"/>
    </g>
    <text x="54" y="106" text-anchor="middle">Pie</text>
  </g>
  <g transform="translate(756,0)">
    <circle cx="54" cy="58" r="38" stroke="#111111" stroke-width="2" fill="none"/>
    <g transform="translate(4,10)">

      <path fill="#111111" fill-rule="evenodd" d="M35 37c6-8 16-3 15 7 0-10 10-15 16-7 6 8-2 18-12 15l8 10h-8l-4-6-4 6h-8l8-10c-10 3-18-7-12-15zm5 6c-2 3 1 7 6 5 0-5-3-8-6-5zm20 0c-3-3-6 0-6 5 5 2 8-2 6-5z"/>
    </g>
    <text x="54" y="106" text-anchor="middle">Pretzel</text>
  </g>
  <g transform="translate(864,0)">
    <circle cx="54" cy="58" r="38" stroke="#111111" stroke-width="2" fill="none"/>
    <g transform="translate(4,10)">

      <circle fill="#111111" cx="50" cy="48" r="22"/>
      <circle fill="#F5F2EA" cx="43" cy="39" r="3"/>
      <circle fill="#F5F2EA" cx="57" cy="42" r="2.5"/>
      <circle fill="#F5F2EA" cx="45" cy="57" r="2.5"/>
      <circle fill="#F5F2EA" cx="61" cy="58" r="3"/>
    </g>
    <text x="54" y="106" text-anchor="middle">Cookie</text>
  </g>
  <g transform="translate(972,0)">
    <circle cx="54" cy="58" r="38" stroke="#111111" stroke-width="2" fill="none"/>
    <g transform="translate(4,10)">

      <path fill="#111111" d="M32 45c0-10 8-17 18-17s18 7 18 17H32z"/>
      <path fill="#111111" d="M34 49h32l-4 20H38l-4-20z"/>
      <path fill="#F5F2EA" d="M41 53h4l2 12h-4l-2-12zm14 0h4l-2 12h-4l2-12z"/>
    </g>
    <text x="54" y="106" text-anchor="middle">Muffin</text>
  </g>
  <g transform="translate(0,130)">
    <circle cx="54" cy="58" r="38" stroke="#111111" stroke-width="2" fill="none"/>
    <g transform="translate(4,10)">

      <rect fill="#111111" x="48" y="28" width="4" height="42" rx="2"/>
      <path fill="#111111" d="M46 35c-8 0-13-5-14-12 8 0 13 5 14 12zm8 0c8 0 13-5 14-12-8 0-13 5-14 12zM46 48c-8 0-13-5-14-12 8 0 13 5 14 12zm8 0c8 0 13-5 14-12-8 0-13 5-14 12zM46 61c-8 0-13-5-14-12 8 0 13 5 14 12zm8 0c8 0 13-5 14-12-8 0-13 5-14 12z"/>
    </g>
    <text x="54" y="106" text-anchor="middle">Wheat</text>
  </g>
  <g transform="translate(108,130)">
    <circle cx="54" cy="58" r="38" stroke="#111111" stroke-width="2" fill="none"/>
    <g transform="translate(4,10)">

      <rect fill="#111111" x="29" y="40" width="42" height="16" rx="8"/>
      <rect fill="#111111" x="22" y="43" width="10" height="10" rx="5"/>
      <rect fill="#111111" x="68" y="43" width="10" height="10" rx="5"/>
    </g>
    <text x="54" y="106" text-anchor="middle">Rolling Pin</text>
  </g>
  <g transform="translate(216,130)">
    <circle cx="54" cy="58" r="38" stroke="#111111" stroke-width="2" fill="none"/>
    <g transform="translate(4,10)">

      <path fill="#111111" d="M47 56h6v15h-6z"/>
      <path fill="#111111" fill-rule="evenodd" d="M50 26c11 7 16 17 13 26-2 6-7 10-13 10s-11-4-13-10c-3-9 2-19 13-26zm0 8c-6 6-9 12-7 17 1 3 4 5 7 5s6-2 7-5c2-5-1-11-7-17z"/>
    </g>
    <text x="54" y="106" text-anchor="middle">Whisk</text>
  </g>
  <g transform="translate(324,130)">
    <circle cx="54" cy="58" r="38" stroke="#111111" stroke-width="2" fill="none"/>
    <g transform="translate(4,10)">

      <rect fill="#111111" x="47" y="42" width="6" height="29" rx="3"/>
      <path fill="#111111" d="M37 25h26v20a4 4 0 0 1-4 4H41a4 4 0 0 1-4-4V25z"/>
      <rect fill="#F5F2EA" x="42" y="30" width="4" height="12" rx="2"/>
      <rect fill="#F5F2EA" x="48" y="30" width="4" height="12" rx="2"/>
      <rect fill="#F5F2EA" x="54" y="30" width="4" height="12" rx="2"/>
    </g>
    <text x="54" y="106" text-anchor="middle">Spatula</text>
  </g>
  <g transform="translate(432,130)">
    <circle cx="54" cy="58" r="38" stroke="#111111" stroke-width="2" fill="none"/>
    <g transform="translate(4,10)">

      <rect fill="#111111" x="30" y="31" width="40" height="36" rx="6"/>
      <rect fill="#F5F2EA" x="36" y="42" width="28" height="18" rx="3"/>
      <circle fill="#F5F2EA" cx="39" cy="37" r="2"/>
      <circle fill="#F5F2EA" cx="47" cy="37" r="2"/>
      <circle fill="#F5F2EA" cx="55" cy="37" r="2"/>
    </g>
    <text x="54" y="106" text-anchor="middle">Oven</text>
  </g>
  <g transform="translate(540,130)">
    <circle cx="54" cy="58" r="38" stroke="#111111" stroke-width="2" fill="none"/>
    <g transform="translate(4,10)">

      <path fill="#111111" d="M36 35h24c6 0 10 5 10 11s-4 11-10 11h-5v10H37V57h-1c-6 0-10-5-10-11s4-11 10-11z"/>
      <rect fill="#F5F2EA" x="34" y="43" width="24" height="6" rx="3"/>
      <rect fill="#111111" x="42" y="26" width="17" height="9" rx="4"/>
    </g>
    <text x="54" y="106" text-anchor="middle">Mixer</text>
  </g>
  <g transform="translate(648,130)">
    <circle cx="54" cy="58" r="38" stroke="#111111" stroke-width="2" fill="none"/>
    <g transform="translate(4,10)">

      <path fill="#111111" d="M34 45h32l-5 22H39l-5-22z"/>
      <path fill="#111111" d="M39 30h22l5 13H34l5-13z"/>
      <circle fill="#F5F2EA" cx="50" cy="39" r="5"/>
      <rect fill="#111111" x="46" y="24" width="8" height="7" rx="3"/>
    </g>
    <text x="54" y="106" text-anchor="middle">Scale</text>
  </g>
  <g transform="translate(756,130)">
    <circle cx="54" cy="58" r="38" stroke="#111111" stroke-width="2" fill="none"/>
    <g transform="translate(4,10)">

      <path fill="#111111" d="M35 31h30l4 36H31l4-36z"/>
      <rect fill="#F5F2EA" x="39" y="42" width="22" height="15" rx="3"/>
      <path fill="#111111" d="M43 46h14v3H43zm0 5h10v3H43z"/>
      <rect fill="#111111" x="41" y="25" width="18" height="8" rx="3"/>
    </g>
    <text x="54" y="106" text-anchor="middle">Flour</text>
  </g>
  <g transform="translate(864,130)">
    <circle cx="54" cy="58" r="38" stroke="#111111" stroke-width="2" fill="none"/>
    <g transform="translate(4,10)">

      <path fill="#111111" d="M50 27c10 0 18 16 18 27 0 10-8 17-18 17s-18-7-18-17c0-11 8-27 18-27z"/>
      <circle fill="#F5F2EA" cx="50" cy="55" r="6"/>
    </g>
    <text x="54" y="106" text-anchor="middle">Egg</text>
  </g>
  <g transform="translate(972,130)">
    <circle cx="54" cy="58" r="38" stroke="#111111" stroke-width="2" fill="none"/>
    <g transform="translate(4,10)">

      <path fill="#111111" d="M39 31l5-7h12l5 7v36a4 4 0 0 1-4 4H43a4 4 0 0 1-4-4V31z"/>
      <rect fill="#F5F2EA" x="43" y="44" width="14" height="15" rx="2"/>
      <rect fill="#111111" x="44" y="25" width="12" height="5" rx="2"/>
    </g>
    <text x="54" y="106" text-anchor="middle">Milk</text>
  </g>
  <g transform="translate(0,260)">
    <circle cx="54" cy="58" r="38" stroke="#111111" stroke-width="2" fill="none"/>
    <g transform="translate(4,10)">

      <path fill="#111111" d="M32 40h28v16c0 8-6 14-14 14s-14-6-14-14V40z"/>
      <path fill="#111111" d="M60 44h5c5 0 8 3 8 8s-3 8-8 8h-5v-6h5c2 0 3-1 3-2s-1-2-3-2h-5v-6z"/>
      <rect fill="#111111" x="34" y="32" width="5" height="6" rx="2"/>
      <rect fill="#111111" x="44" y="29" width="5" height="8" rx="2"/>
      <rect fill="#111111" x="54" y="32" width="5" height="6" rx="2"/>
    </g>
    <text x="54" y="106" text-anchor="middle">Coffee</text>
  </g>
  <g transform="translate(108,260)">
    <circle cx="54" cy="58" r="38" stroke="#111111" stroke-width="2" fill="none"/>
    <g transform="translate(4,10)">

      <path fill="#111111" d="M31 43h31v13c0 8-6 14-15 14S31 64 31 56V43z"/>
      <path fill="#111111" d="M62 46h5c5 0 8 3 8 7s-3 7-8 7h-5v-5h5c2 0 3-1 3-2s-1-2-3-2h-5v-5z"/>
      <path fill="#111111" d="M41 33c-5-5-1-10 6-8 1 6-1 9-6 8zm11 0c6-6 2-11-6-9-1 6 1 9 6 9z"/>
    </g>
    <text x="54" y="106" text-anchor="middle">Tea</text>
  </g>
  <g transform="translate(216,260)">
    <circle cx="54" cy="58" r="38" stroke="#111111" stroke-width="2" fill="none"/>
    <g transform="translate(4,10)">

      <rect fill="#111111" x="36" y="35" width="28" height="33" rx="5"/>
      <rect fill="#111111" x="39" y="28" width="22" height="8" rx="3"/>
      <rect fill="#F5F2EA" x="41" y="45" width="18" height="13" rx="3"/>
      <circle fill="#111111" cx="50" cy="51" r="3"/>
    </g>
    <text x="54" y="106" text-anchor="middle">Jam</text>
  </g>
  <g transform="translate(324,260)">
    <circle cx="54" cy="58" r="38" stroke="#111111" stroke-width="2" fill="none"/>
    <g transform="translate(4,10)">

      <path fill="#111111" d="M36 38h28v25c0 5-4 8-8 8H44c-4 0-8-3-8-8V38z"/>
      <rect fill="#111111" x="39" y="29" width="22" height="10" rx="4"/>
      <path fill="#F5F2EA" d="M42 48h16v4H42zm0 8h12v4H42z"/>
      <path fill="#111111" d="M64 44c7 4 10 10 6 15-3 4-9 2-9-3 0-4 3-8 3-12z"/>
    </g>
    <text x="54" y="106" text-anchor="middle">Honey</text>
  </g>
  <g transform="translate(432,260)">
    <circle cx="54" cy="58" r="38" stroke="#111111" stroke-width="2" fill="none"/>
    <g transform="translate(4,10)">

      <path fill="#111111" d="M31 44l13-10h25v22L56 66H31V44z"/>
      <path fill="#F5F2EA" d="M44 34v22L31 66V44l13-10z"/>
      <rect fill="#111111" x="41" y="45" width="18" height="4" rx="2"/>
    </g>
    <text x="54" y="106" text-anchor="middle">Butter</text>
  </g>
  <g transform="translate(540,260)">
    <circle cx="54" cy="58" r="38" stroke="#111111" stroke-width="2" fill="none"/>
    <g transform="translate(4,10)">

      <rect fill="#111111" x="28" y="39" width="44" height="27" rx="5"/>
      <rect fill="#F5F2EA" x="34" y="45" width="32" height="15" rx="3"/>
      <rect fill="#111111" x="36" y="31" width="28" height="8" rx="4"/>
    </g>
    <text x="54" y="106" text-anchor="middle">Tray</text>
  </g>
  <g transform="translate(648,260)">
    <circle cx="54" cy="58" r="38" stroke="#111111" stroke-width="2" fill="none"/>
    <g transform="translate(4,10)">

      <path fill="#111111" d="M35 43c-7-2-10-10-5-16 5-6 13-3 15 2 4-7 14-7 18 0 2-5 10-7 15-1 5 7 1 15-6 16v23H35V43z"/>
      <rect fill="#F5F2EA" x="40" y="54" width="20" height="4" rx="2"/>
    </g>
    <text x="54" y="106" text-anchor="middle">Chef Hat</text>
  </g>
  <g transform="translate(756,260)">
    <circle cx="54" cy="58" r="38" stroke="#111111" stroke-width="2" fill="none"/>
    <g transform="translate(4,10)">

      <path fill="#111111" d="M42 30h16l5 14v25H37V44l5-14z"/>
      <path fill="#111111" d="M37 44l-8-8 4-5 8 9-4 4zm26 0l8-8-4-5-8 9 4 4z"/>
      <rect fill="#F5F2EA" x="43" y="54" width="14" height="10" rx="3"/>
    </g>
    <text x="54" y="106" text-anchor="middle">Apron</text>
  </g>
  <g transform="translate(864,260)">
    <circle cx="54" cy="58" r="38" stroke="#111111" stroke-width="2" fill="none"/>
    <g transform="translate(4,10)">

      <path fill="#111111" d="M31 42h38v27H31V42z"/>
      <path fill="#111111" d="M35 28h30l7 14H28l7-14z"/>
      <rect fill="#F5F2EA" x="39" y="51" width="10" height="18" rx="2"/>
      <rect fill="#F5F2EA" x="53" y="50" width="10" height="9" rx="2"/>
    </g>
    <text x="54" y="106" text-anchor="middle">Shop</text>
  </g>
  <g transform="translate(972,260)">
    <circle cx="54" cy="58" r="38" stroke="#111111" stroke-width="2" fill="none"/>
    <g transform="translate(4,10)">

      <path fill="#111111" d="M34 40h32l4 30H30l4-30z"/>
      <path fill="#111111" d="M42 43v-7c0-5 3-9 8-9s8 4 8 9v7h-5v-7c0-2-1-4-3-4s-3 2-3 4v7h-5z"/>
      <circle fill="#F5F2EA" cx="43" cy="50" r="2"/>
      <circle fill="#F5F2EA" cx="57" cy="50" r="2"/>
    </g>
    <text x="54" y="106" text-anchor="middle">Takeaway</text>
  </g>
</svg>
