<svg xmlns="http://www.w3.org/2000/svg" width="1080" height="390" viewBox="0 0 1080 390" role="img" aria-labelledby="title desc">
  <title id="title">MandarinAi language learning SVG icon system</title>
  <desc id="desc">Thirty MandarinAi language study icons for vocabulary, pronunciation, pinyin, tones, listening, speaking, grammar, quizzes, review, progress, culture, and achievement.</desc>
  <rect width="1080" height="390" fill="#F5F2EA"/>
  <style>
    text {
      font-family: system-ui, -apple-system, BlinkMacSystemFont, "Segoe UI", sans-serif;
      font-size: 11px;
      font-weight: 600;
      fill: #111111;
    }
  </style>
  <g transform="translate(0,0)">
    <circle cx="54" cy="58" r="38" stroke="#111111" stroke-width="2" fill="none"/>
    <g transform="translate(4,10)">

      <rect fill="#111111" x="31" y="31" width="38" height="34" rx="6"/>
      <rect fill="#F5F2EA" x="38" y="40" width="24" height="4" rx="2"/>
      <rect fill="#F5F2EA" x="38" y="50" width="18" height="4" rx="2"/>
    </g>
    <text x="54" y="106" text-anchor="middle">Word Card</text>
  </g>
  <g transform="translate(108,0)">
    <circle cx="54" cy="58" r="38" stroke="#111111" stroke-width="2" fill="none"/>
    <g transform="translate(4,10)">

      <rect fill="#111111" x="34" y="29" width="32" height="38" rx="6"/>
      <path fill="#F5F2EA" d="M41 56V40h11c5 0 8 3 8 8s-3 8-8 8h-5v6h-6zm6-11v6h5c2 0 3-1 3-3s-1-3-3-3h-5z"/>
      <rect fill="#F5F2EA" x="42" y="35" width="16" height="3" rx="1.5"/>
    </g>
    <text x="54" y="106" text-anchor="middle">Pinyin</text>
  </g>
  <g transform="translate(216,0)">
    <circle cx="54" cy="58" r="38" stroke="#111111" stroke-width="2" fill="none"/>
    <g transform="translate(4,10)">

      <rect fill="#111111" x="31" y="31" width="38" height="34" rx="5"/>
      <rect fill="#F5F2EA" x="39" y="40" width="22" height="4" rx="2"/>
      <rect fill="#F5F2EA" x="48" y="40" width="4" height="19" rx="2"/>
      <rect fill="#F5F2EA" x="40" y="52" width="20" height="4" rx="2"/>
    </g>
    <text x="54" y="106" text-anchor="middle">Hanzi</text>
  </g>
  <g transform="translate(324,0)">
    <circle cx="54" cy="58" r="38" stroke="#111111" stroke-width="2" fill="none"/>
    <g transform="translate(4,10)">

      <rect fill="#111111" x="31" y="38" width="38" height="23" rx="5"/>
      <rect fill="#F5F2EA" x="39" y="48" width="22" height="4" rx="2"/>
      <rect fill="#111111" x="39" y="28" width="22" height="5" rx="2.5"/>
    </g>
    <text x="54" y="106" text-anchor="middle">Tone 1</text>
  </g>
  <g transform="translate(432,0)">
    <circle cx="54" cy="58" r="38" stroke="#111111" stroke-width="2" fill="none"/>
    <g transform="translate(4,10)">

      <rect fill="#111111" x="31" y="38" width="38" height="23" rx="5"/>
      <rect fill="#F5F2EA" x="39" y="48" width="22" height="4" rx="2"/>
      <path fill="#111111" d="M40 33l18-8 2 5-18 8-2-5z"/>
    </g>
    <text x="54" y="106" text-anchor="middle">Tone 2</text>
  </g>
  <g transform="translate(540,0)">
    <circle cx="54" cy="58" r="38" stroke="#111111" stroke-width="2" fill="none"/>
    <g transform="translate(4,10)">

      <rect fill="#111111" x="31" y="38" width="38" height="23" rx="5"/>
      <rect fill="#F5F2EA" x="39" y="48" width="22" height="4" rx="2"/>
      <path fill="#111111" d="M38 26h6l6 6 6-6h6L50 39 38 26z"/>
    </g>
    <text x="54" y="106" text-anchor="middle">Tone 3</text>
  </g>
  <g transform="translate(648,0)">
    <circle cx="54" cy="58" r="38" stroke="#111111" stroke-width="2" fill="none"/>
    <g transform="translate(4,10)">

      <rect fill="#111111" x="31" y="38" width="38" height="23" rx="5"/>
      <rect fill="#F5F2EA" x="39" y="48" width="22" height="4" rx="2"/>
      <path fill="#111111" d="M58 33l-18-8-2 5 18 8 2-5z"/>
    </g>
    <text x="54" y="106" text-anchor="middle">Tone 4</text>
  </g>
  <g transform="translate(756,0)">
    <circle cx="54" cy="58" r="38" stroke="#111111" stroke-width="2" fill="none"/>
    <g transform="translate(4,10)">

      <rect fill="#111111" x="31" y="38" width="38" height="23" rx="5"/>
      <rect fill="#F5F2EA" x="39" y="48" width="22" height="4" rx="2"/>
      <circle fill="#111111" cx="50" cy="30" r="4"/>
    </g>
    <text x="54" y="106" text-anchor="middle">Neutral</text>
  </g>
  <g transform="translate(864,0)">
    <circle cx="54" cy="58" r="38" stroke="#111111" stroke-width="2" fill="none"/>
    <g transform="translate(4,10)">

      <path fill="#111111" d="M32 50c0-12 8-21 18-21s18 9 18 21v12h-9V49c0-6-4-11-9-11s-9 5-9 11v13h-9V50z"/>
      <rect fill="#111111" x="29" y="51" width="10" height="18" rx="5"/>
      <rect fill="#111111" x="61" y="51" width="10" height="18" rx="5"/>
    </g>
    <text x="54" y="106" text-anchor="middle">Listen</text>
  </g>
  <g transform="translate(972,0)">
    <circle cx="54" cy="58" r="38" stroke="#111111" stroke-width="2" fill="none"/>
    <g transform="translate(4,10)">

      <path fill="#111111" d="M33 44c2-9 9-15 19-15h8v-6l12 10-12 10v-6h-8c-6 0-10 3-12 8l-7-1z"/>
      <path fill="#111111" d="M67 52c-2 9-9 15-19 15h-8v6L28 63l12-10v6h8c6 0 10-3 12-8l7 1z"/>
    </g>
    <text x="54" y="106" text-anchor="middle">Repeat</text>
  </g>
  <g transform="translate(0,130)">
    <circle cx="54" cy="58" r="38" stroke="#111111" stroke-width="2" fill="none"/>
    <g transform="translate(4,10)">

      <path fill="#111111" d="M33 39c0-6 5-11 11-11h12c6 0 11 5 11 11v8c0 6-5 11-11 11h-6l-11 10v-10c-4-1-6-5-6-9V39z"/>
      <rect fill="#F5F2EA" x="40" y="41" width="20" height="4" rx="2"/>
    </g>
    <text x="54" y="106" text-anchor="middle">Speak</text>
  </g>
  <g transform="translate(108,130)">
    <circle cx="54" cy="58" r="38" stroke="#111111" stroke-width="2" fill="none"/>
    <g transform="translate(4,10)">

      <path fill="#111111" d="M29 36c0-5 4-9 9-9h19c5 0 9 4 9 9v8c0 5-4 9-9 9H45l-10 8v-8c-4-1-6-4-6-8v-9z"/>
      <path fill="#111111" d="M43 55h20c5 0 8-3 8-8v12c0 5-3 8-8 8H53l-8 7v-7h-2c-4 0-7-3-7-7v-1h7z"/>
    </g>
    <text x="54" y="106" text-anchor="middle">Dialogue</text>
  </g>
  <g transform="translate(216,130)">
    <circle cx="54" cy="58" r="38" stroke="#111111" stroke-width="2" fill="none"/>
    <g transform="translate(4,10)">

      <rect fill="#111111" x="30" y="31" width="40" height="36" rx="6"/>
      <rect fill="#F5F2EA" x="37" y="40" width="26" height="4" rx="2"/>
      <rect fill="#F5F2EA" x="37" y="49" width="22" height="4" rx="2"/>
      <rect fill="#F5F2EA" x="37" y="58" width="14" height="4" rx="2"/>
    </g>
    <text x="54" y="106" text-anchor="middle">Sentence</text>
  </g>
  <g transform="translate(324,130)">
    <circle cx="54" cy="58" r="38" stroke="#111111" stroke-width="2" fill="none"/>
    <g transform="translate(4,10)">

      <rect fill="#111111" x="31" y="32" width="38" height="33" rx="6"/>
      <rect fill="#F5F2EA" x="39" y="41" width="8" height="8" rx="2"/>
      <rect fill="#F5F2EA" x="53" y="41" width="8" height="8" rx="2"/>
      <rect fill="#F5F2EA" x="46" y="55" width="8" height="5" rx="2"/>
      <rect fill="#F5F2EA" x="45" y="48" width="10" height="3" rx="1.5"/>
    </g>
    <text x="54" y="106" text-anchor="middle">Grammar</text>
  </g>
  <g transform="translate(432,130)">
    <circle cx="54" cy="58" r="38" stroke="#111111" stroke-width="2" fill="none"/>
    <g transform="translate(4,10)">

      <rect fill="#111111" x="29" y="32" width="25" height="25" rx="5"/>
      <rect fill="#111111" x="46" y="42" width="25" height="25" rx="5"/>
      <rect fill="#F5F2EA" x="36" y="42" width="11" height="4" rx="2"/>
      <path fill="#F5F2EA" d="M57 50h4l6 12h-5l-1-3h-5l-1 3h-5l7-12zm1 6h2l-1-3-1 3z"/>
    </g>
    <text x="54" y="106" text-anchor="middle">Translate</text>
  </g>
  <g transform="translate(540,130)">
    <circle cx="54" cy="58" r="38" stroke="#111111" stroke-width="2" fill="none"/>
    <g transform="translate(4,10)">

      <rect fill="#111111" x="32" y="29" width="36" height="39" rx="6"/>
      <path fill="#F5F2EA" d="M45 45c0-6 10-5 10-10 0-2-2-3-5-3-3 0-5 1-7 3l-4-5c3-3 7-5 12-5 7 0 12 4 12 9 0 8-10 8-10 12h-8zm0 7h8v7h-8z"/>
    </g>
    <text x="54" y="106" text-anchor="middle">Quiz</text>
  </g>
  <g transform="translate(648,130)">
    <circle cx="54" cy="58" r="38" stroke="#111111" stroke-width="2" fill="none"/>
    <g transform="translate(4,10)">

      <rect fill="#111111" x="31" y="32" width="15" height="15" rx="4"/>
      <rect fill="#111111" x="54" y="32" width="15" height="15" rx="4"/>
      <rect fill="#111111" x="31" y="55" width="15" height="15" rx="4"/>
      <rect fill="#111111" x="54" y="55" width="15" height="15" rx="4"/>
      <rect fill="#111111" x="44" y="39" width="12" height="3" rx="1.5"/>
      <rect fill="#111111" x="44" y="62" width="12" height="3" rx="1.5"/>
    </g>
    <text x="54" y="106" text-anchor="middle">Match</text>
  </g>
  <g transform="translate(756,130)">
    <circle cx="54" cy="58" r="38" stroke="#111111" stroke-width="2" fill="none"/>
    <g transform="translate(4,10)">

      <path fill="#111111" d="M50 28a20 20 0 1 1-18 29h9a12 12 0 1 0 1-19l5 5H31V27l5 5c4-3 9-4 14-4z"/>
      <rect fill="#F5F2EA" x="48" y="38" width="5" height="14" rx="2"/>
      <rect fill="#F5F2EA" x="48" y="49" width="13" height="5" rx="2"/>
    </g>
    <text x="54" y="106" text-anchor="middle">Review</text>
  </g>
  <g transform="translate(864,130)">
    <circle cx="54" cy="58" r="38" stroke="#111111" stroke-width="2" fill="none"/>
    <g transform="translate(4,10)">

      <path fill="#111111" d="M35 29h30v41L50 60 35 70V29z"/>
      <path fill="#F5F2EA" d="M43 43h14v4H43zm0 8h10v4H43z"/>
    </g>
    <text x="54" y="106" text-anchor="middle">Saved</text>
  </g>
  <g transform="translate(972,130)">
    <circle cx="54" cy="58" r="38" stroke="#111111" stroke-width="2" fill="none"/>
    <g transform="translate(4,10)">

      <rect fill="#111111" x="32" y="31" width="36" height="36" rx="6"/>
      <path fill="#F5F2EA" d="M40 42l4-4 6 6 6-6 4 4-6 6 6 6-4 4-6-6-6 6-4-4 6-6-6-6z"/>
    </g>
    <text x="54" y="106" text-anchor="middle">Mistakes</text>
  </g>
  <g transform="translate(0,260)">
    <circle cx="54" cy="58" r="38" stroke="#111111" stroke-width="2" fill="none"/>
    <g transform="translate(4,10)">

      <path fill="#111111" d="M50 25c8 9 17 17 17 29 0 10-7 17-17 17s-17-7-17-17c0-8 4-14 10-20 0 6 4 9 7 10-2-7 0-13 0-19z"/>
      <path fill="#F5F2EA" d="M50 50c5 5 8 8 8 13 0 4-3 7-8 7s-8-3-8-7c0-5 3-8 8-13z"/>
    </g>
    <text x="54" y="106" text-anchor="middle">Streak</text>
  </g>
  <g transform="translate(108,260)">
    <circle cx="54" cy="58" r="38" stroke="#111111" stroke-width="2" fill="none"/>
    <g transform="translate(4,10)">

      <rect fill="#111111" x="31" y="58" width="8" height="12" rx="3"/>
      <rect fill="#111111" x="44" y="47" width="8" height="23" rx="3"/>
      <rect fill="#111111" x="57" y="35" width="8" height="35" rx="3"/>
      <path fill="#111111" d="M32 39l15-9 9 7 11-12 5 5-16 18-10-8-11 6-3-7z"/>
    </g>
    <text x="54" y="106" text-anchor="middle">Progress</text>
  </g>
  <g transform="translate(216,260)">
    <circle cx="54" cy="58" r="38" stroke="#111111" stroke-width="2" fill="none"/>
    <g transform="translate(4,10)">

      <path fill="#111111" d="M50 27l7 14 15 2-11 11 3 16-14-8-14 8 3-16-11-11 15-2 7-14z"/>
    </g>
    <text x="54" y="106" text-anchor="middle">Level</text>
  </g>
  <g transform="translate(324,260)">
    <circle cx="54" cy="58" r="38" stroke="#111111" stroke-width="2" fill="none"/>
    <g transform="translate(4,10)">

      <path fill="#111111" fill-rule="evenodd" d="M50 28a20 20 0 1 1 0 40 20 20 0 0 1 0-40zm0 8a12 12 0 1 0 0 24 12 12 0 0 0 0-24zm0 7a5 5 0 1 1 0 10 5 5 0 0 1 0-10z"/>
    </g>
    <text x="54" y="106" text-anchor="middle">Goal</text>
  </g>
  <g transform="translate(432,260)">
    <circle cx="54" cy="58" r="38" stroke="#111111" stroke-width="2" fill="none"/>
    <g transform="translate(4,10)">

      <path fill="#111111" d="M31 42h38v25H31V42z"/>
      <path fill="#111111" d="M28 35h44v8H28z"/>
      <path fill="#111111" d="M35 29h30l5 7H30l5-7z"/>
      <rect fill="#F5F2EA" x="39" y="50" width="6" height="17"/>
      <rect fill="#F5F2EA" x="55" y="50" width="6" height="17"/>
    </g>
    <text x="54" y="106" text-anchor="middle">Culture</text>
  </g>
  <g transform="translate(540,260)">
    <circle cx="54" cy="58" r="38" stroke="#111111" stroke-width="2" fill="none"/>
    <g transform="translate(4,10)">

      <path fill="#111111" d="M29 33h17c5 0 8 3 8 8v28c-2-2-5-3-8-3H29V33z"/>
      <path fill="#111111" d="M71 33H54c-5 0-8 3-8 8v28c2-2 5-3 8-3h17V33z"/>
      <rect fill="#F5F2EA" x="34" y="43" width="12" height="3" rx="1.5"/>
      <rect fill="#F5F2EA" x="54" y="43" width="12" height="3" rx="1.5"/>
    </g>
    <text x="54" y="106" text-anchor="middle">Reading</text>
  </g>
  <g transform="translate(648,260)">
    <circle cx="54" cy="58" r="38" stroke="#111111" stroke-width="2" fill="none"/>
    <g transform="translate(4,10)">

      <rect fill="#111111" x="31" y="57" width="31" height="8" rx="4"/>
      <path fill="#111111" d="M38 52l20-23 8 7-20 23-12 4 4-11z"/>
      <path fill="#F5F2EA" d="M55 33l7 6-3 3-7-6 3-3z"/>
    </g>
    <text x="54" y="106" text-anchor="middle">Writing</text>
  </g>
  <g transform="translate(756,260)">
    <circle cx="54" cy="58" r="38" stroke="#111111" stroke-width="2" fill="none"/>
    <g transform="translate(4,10)">

      <rect fill="#111111" x="33" y="32" width="34" height="30" rx="8"/>
      <rect fill="#111111" x="47" y="24" width="6" height="8" rx="3"/>
      <circle fill="#111111" cx="50" cy="22" r="3"/>
      <rect fill="#111111" x="39" y="62" width="22" height="6" rx="3"/>
      <circle fill="#F5F2EA" cx="44" cy="46" r="3"/>
      <circle fill="#F5F2EA" cx="56" cy="46" r="3"/>
      <rect fill="#F5F2EA" x="44" y="54" width="12" height="3" rx="1.5"/>
    </g>
    <text x="54" y="106" text-anchor="middle">AI Tutor</text>
  </g>
  <g transform="translate(864,260)">
    <circle cx="54" cy="58" r="38" stroke="#111111" stroke-width="2" fill="none"/>
    <g transform="translate(4,10)">

      <rect fill="#111111" x="30" y="33" width="40" height="31" rx="6"/>
      <path fill="#F5F2EA" d="M38 45h24v4H38zm0 9h16v4H38z"/>
      <path fill="#111111" d="M39 27h22l4 7H35l4-7z"/>
      <circle fill="#F5F2EA" cx="61" cy="55" r="4"/>
    </g>
    <text x="54" y="106" text-anchor="middle">Scenario</text>
  </g>
  <g transform="translate(972,260)">
    <circle cx="54" cy="58" r="38" stroke="#111111" stroke-width="2" fill="none"/>
    <g transform="translate(4,10)">

      <path fill="#111111" d="M38 29h24v13c0 8-5 15-12 17-7-2-12-9-12-17V29z"/>
      <path fill="#111111" d="M34 33h-7c0 10 5 17 13 18v-7c-4-1-6-4-6-11z"/>
      <path fill="#111111" d="M66 33h7c0 10-5 17-13 18v-7c4-1 6-4 6-11z"/>
      <rect fill="#111111" x="45" y="58" width="10" height="8" rx="2"/>
      <rect fill="#111111" x="39" y="66" width="22" height="5" rx="2"/>
      <path fill="#F5F2EA" d="M50 35l3 6 6 1-5 4 2 7-6-4-6 4 2-7-5-4 6-1 3-6z"/>
    </g>
    <text x="54" y="106" text-anchor="middle">Achievement</text>
  </g>
</svg>
