<?xml version="1.0" encoding="UTF-8"?>
<svg xmlns="http://www.w3.org/2000/svg" xmlns:xlink="http://www.w3.org/1999/xlink" width="1280" height="720" viewBox="0 0 1280 720">
<defs>
<g>
<g id="glyph-0-0">
<path d="M 0.578125 -1.558594 L 0.578125 0.332031 L 0.816406 0.332031 L 0.816406 -1.925781 C 0.9375 -2.144531 1.039062 -2.375 1.121094 -2.613281 L 0.902344 -2.714844 C 0.738281 -2.199219 0.480469 -1.742188 0.121094 -1.34375 L 0.191406 -1.101562 C 0.328125 -1.246094 0.460938 -1.398438 0.578125 -1.558594 Z M 1.054688 -1.910156 L 1.054688 -1.675781 L 1.730469 -1.675781 C 1.65625 -0.851562 1.398438 -0.238281 0.949219 0.171875 L 1.125 0.324219 C 1.605469 -0.121094 1.886719 -0.785156 1.960938 -1.675781 L 2.167969 -1.675781 L 2.167969 0.00390625 C 2.167969 0.1875 2.257812 0.28125 2.433594 0.28125 L 2.847656 0.28125 C 2.933594 0.277344 3.003906 0.242188 3.050781 0.183594 C 3.097656 0.109375 3.132812 -0.105469 3.15625 -0.460938 L 2.941406 -0.53125 C 2.929688 -0.222656 2.910156 -0.046875 2.878906 0.00390625 C 2.851562 0.0390625 2.824219 0.0585938 2.785156 0.0585938 L 2.496094 0.0585938 C 2.429688 0.0585938 2.398438 0.0273438 2.398438 -0.0390625 L 2.398438 -1.675781 L 3.09375 -1.675781 L 3.09375 -1.910156 L 1.972656 -1.910156 C 1.976562 -1.976562 1.980469 -2.042969 1.980469 -2.109375 L 1.980469 -2.714844 L 1.75 -2.714844 L 1.75 -2.109375 C 1.75 -2.042969 1.746094 -1.976562 1.742188 -1.910156 Z M 2.417969 -2.652344 L 2.261719 -2.503906 C 2.480469 -2.347656 2.648438 -2.195312 2.777344 -2.054688 L 2.941406 -2.214844 C 2.800781 -2.363281 2.625 -2.507812 2.417969 -2.652344 Z "/>
</g>
<g id="glyph-0-1">
<path d="M 1.15625 -2.746094 C 0.941406 -2.21875 0.601562 -1.753906 0.125 -1.347656 L 0.203125 -1.097656 C 0.378906 -1.242188 0.542969 -1.398438 0.691406 -1.5625 L 0.691406 0.339844 L 0.933594 0.339844 L 0.933594 -1.855469 C 1.113281 -2.101562 1.261719 -2.363281 1.378906 -2.644531 Z M 2.691406 0.28125 C 2.851562 0.28125 2.964844 0.238281 3.023438 0.160156 C 3.078125 0.078125 3.121094 -0.152344 3.144531 -0.535156 L 2.917969 -0.609375 C 2.90625 -0.28125 2.882812 -0.0859375 2.847656 -0.0351562 C 2.804688 0.0195312 2.738281 0.0507812 2.652344 0.0507812 L 2.113281 0.0507812 C 2 0.0507812 1.945312 -0.00390625 1.945312 -0.105469 L 1.945312 -1.234375 C 2.359375 -1.492188 2.722656 -1.789062 3.03125 -2.125 L 2.867188 -2.3125 C 2.601562 -2.015625 2.296875 -1.75 1.945312 -1.515625 L 1.945312 -2.707031 L 1.707031 -2.707031 L 1.707031 -1.371094 C 1.535156 -1.269531 1.355469 -1.179688 1.167969 -1.09375 L 1.277344 -0.867188 C 1.421875 -0.9375 1.566406 -1.011719 1.707031 -1.089844 L 1.707031 -0.0742188 C 1.707031 0.160156 1.824219 0.28125 2.054688 0.28125 Z "/>
</g>
<g id="glyph-0-2">
<path d="M 0.203125 -1.730469 L 0.203125 -1.511719 L 1.542969 -1.511719 L 1.542969 -1.25 L 0.507812 -1.25 L 0.507812 -0.375 L 0.742188 -0.375 L 0.742188 -1.039062 L 1.542969 -1.039062 L 1.542969 -0.75 C 1.175781 -0.394531 0.730469 -0.121094 0.207031 0.0742188 L 0.347656 0.285156 C 0.792969 0.0976562 1.191406 -0.164062 1.542969 -0.5 L 1.542969 0.34375 L 1.789062 0.34375 L 1.789062 -0.511719 C 2.148438 -0.183594 2.578125 0.078125 3.078125 0.265625 L 3.207031 0.0507812 C 2.625 -0.144531 2.152344 -0.40625 1.789062 -0.746094 L 1.789062 -1.039062 L 2.644531 -1.039062 L 2.644531 -0.671875 C 2.644531 -0.605469 2.609375 -0.570312 2.546875 -0.570312 L 2.328125 -0.578125 L 2.390625 -0.367188 L 2.617188 -0.367188 C 2.792969 -0.367188 2.882812 -0.453125 2.882812 -0.625 L 2.882812 -1.25 L 1.789062 -1.25 L 1.789062 -1.511719 L 3.128906 -1.511719 L 3.128906 -1.730469 L 1.789062 -1.730469 L 1.789062 -1.960938 L 1.542969 -1.960938 L 1.542969 -1.730469 Z M 0.632812 -2.238281 L 0.796875 -2.238281 C 0.890625 -2.101562 0.96875 -1.964844 1.035156 -1.820312 L 1.253906 -1.898438 C 1.199219 -2.003906 1.128906 -2.117188 1.046875 -2.238281 L 1.609375 -2.238281 L 1.609375 -2.449219 L 0.75 -2.449219 C 0.789062 -2.53125 0.828125 -2.625 0.859375 -2.714844 L 0.628906 -2.765625 C 0.535156 -2.492188 0.378906 -2.242188 0.167969 -2.015625 L 0.375 -1.886719 C 0.464844 -1.992188 0.554688 -2.109375 0.632812 -2.238281 Z M 2.027344 -2.238281 L 2.253906 -2.238281 C 2.339844 -2.101562 2.417969 -1.964844 2.488281 -1.820312 L 2.695312 -1.898438 C 2.644531 -2.003906 2.578125 -2.117188 2.5 -2.238281 L 3.121094 -2.238281 L 3.121094 -2.449219 L 2.121094 -2.449219 C 2.148438 -2.535156 2.175781 -2.625 2.203125 -2.714844 L 1.96875 -2.761719 C 1.902344 -2.507812 1.792969 -2.277344 1.644531 -2.066406 L 1.847656 -1.933594 C 1.914062 -2.027344 1.972656 -2.128906 2.027344 -2.238281 Z "/>
</g>
<g id="glyph-0-3">
<path d="M 2.945312 -0.917969 L 1.648438 -0.917969 L 1.648438 0.316406 L 1.878906 0.316406 L 1.878906 0.171875 L 2.714844 0.171875 L 2.714844 0.316406 L 2.945312 0.316406 Z M 1.878906 -0.0585938 L 1.878906 -0.695312 L 2.714844 -0.695312 L 2.714844 -0.0585938 Z M 0.476562 -0.101562 L 1.160156 -0.101562 L 1.160156 0.0507812 L 1.367188 0.0507812 L 1.367188 -1.070312 L 1.488281 -0.910156 C 1.804688 -1.042969 2.082031 -1.199219 2.316406 -1.382812 C 2.535156 -1.210938 2.800781 -1.054688 3.109375 -0.917969 L 3.214844 -1.132812 C 2.925781 -1.242188 2.683594 -1.375 2.476562 -1.523438 C 2.691406 -1.730469 2.855469 -1.964844 2.96875 -2.234375 L 2.96875 -2.417969 L 2.066406 -2.417969 C 2.101562 -2.496094 2.140625 -2.578125 2.179688 -2.667969 L 1.941406 -2.71875 C 1.792969 -2.359375 1.601562 -2.070312 1.371094 -1.847656 L 1.527344 -1.664062 C 1.621094 -1.753906 1.707031 -1.851562 1.785156 -1.964844 C 1.878906 -1.8125 2 -1.667969 2.140625 -1.535156 C 1.929688 -1.375 1.671875 -1.230469 1.367188 -1.109375 L 1.367188 -2.488281 L 0.261719 -2.488281 L 0.261719 0.0507812 L 0.476562 0.0507812 Z M 1.160156 -0.316406 L 0.914062 -0.316406 L 0.914062 -1.199219 L 1.160156 -1.199219 Z M 1.160156 -1.410156 L 0.914062 -1.410156 L 0.914062 -2.265625 L 1.160156 -2.265625 Z M 0.71875 -2.265625 L 0.71875 -1.410156 L 0.476562 -1.410156 L 0.476562 -2.265625 Z M 0.476562 -1.199219 L 0.71875 -1.199219 L 0.71875 -0.316406 L 0.476562 -0.316406 Z M 2.296875 -1.667969 C 2.136719 -1.808594 2.011719 -1.964844 1.910156 -2.140625 C 1.917969 -2.15625 1.925781 -2.171875 1.941406 -2.191406 L 2.695312 -2.191406 C 2.597656 -2.003906 2.464844 -1.828125 2.296875 -1.667969 Z "/>
</g>
</g>
</defs>
<g fill="rgb(73.333333%, 73.333333%, 73.333333%)" fill-opacity="1">
<use xlink:href="#glyph-0-0" x="30" y="23.533203"/>
<use xlink:href="#glyph-0-1" x="33" y="23.533203"/>
<use xlink:href="#glyph-0-2" x="36" y="23.533203"/>
<use xlink:href="#glyph-0-3" x="39" y="23.533203"/>
</g>
</svg>
