<?xml version="1.0" encoding="UTF-8"?>
<svg xmlns="http://www.w3.org/2000/svg" xmlns:xlink="http://www.w3.org/1999/xlink" width="1280" height="720" viewBox="0 0 1280 720">
<defs>
<g>
<g id="glyph-0-0">
<path d="M 1.390625 -2.714844 L 1.390625 -2.378906 C 1.386719 -2.265625 1.382812 -2.152344 1.375 -2.039062 L 0.386719 -2.039062 L 0.386719 -1.804688 L 1.355469 -1.804688 C 1.316406 -1.417969 1.242188 -1.082031 1.132812 -0.804688 C 0.960938 -0.421875 0.652344 -0.105469 0.214844 0.125 L 0.347656 0.328125 C 0.792969 0.101562 1.113281 -0.214844 1.3125 -0.621094 C 1.457031 -0.941406 1.554688 -1.332031 1.601562 -1.804688 L 2.65625 -1.804688 C 2.636719 -1.019531 2.597656 -0.503906 2.535156 -0.261719 C 2.476562 -0.03125 2.351562 0.0859375 2.164062 0.0859375 C 2.042969 0.0859375 1.914062 0.0820312 1.78125 0.078125 L 1.847656 0.308594 L 2.28125 0.308594 C 2.457031 0.296875 2.582031 0.226562 2.664062 0.09375 C 2.742188 -0.046875 2.800781 -0.292969 2.832031 -0.644531 C 2.867188 -1 2.886719 -1.464844 2.898438 -2.039062 L 1.625 -2.039062 C 1.628906 -2.148438 1.632812 -2.261719 1.636719 -2.378906 L 1.636719 -2.714844 Z "/>
</g>
<g id="glyph-0-1">
<path d="M 0.824219 -1.9375 L 0.824219 -1.738281 L 1.917969 -1.738281 L 1.917969 -1.9375 Z M 0.914062 -1.527344 L 0.914062 -0.847656 L 1.84375 -0.847656 L 1.84375 -1.527344 Z M 1.621094 -1.035156 L 1.140625 -1.035156 L 1.140625 -1.339844 L 1.621094 -1.339844 Z M 3.046875 -2.421875 L 2.824219 -2.421875 C 2.789062 -2.53125 2.753906 -2.632812 2.714844 -2.71875 L 2.503906 -2.683594 C 2.542969 -2.601562 2.578125 -2.515625 2.613281 -2.421875 L 2.25 -2.421875 C 2.242188 -2.523438 2.242188 -2.625 2.242188 -2.738281 L 2.011719 -2.738281 C 2.011719 -2.628906 2.011719 -2.523438 2.019531 -2.421875 L 0.4375 -2.421875 L 0.4375 -1.765625 C 0.425781 -1.378906 0.332031 -1.078125 0.152344 -0.863281 L 0.332031 -0.699219 C 0.546875 -0.96875 0.660156 -1.328125 0.671875 -1.765625 L 0.671875 -2.203125 L 2.03125 -2.203125 C 2.046875 -1.925781 2.078125 -1.695312 2.132812 -1.511719 C 2.171875 -1.375 2.21875 -1.25 2.273438 -1.144531 C 2.167969 -1.023438 2.046875 -0.921875 1.917969 -0.847656 L 2.039062 -0.660156 C 2.160156 -0.734375 2.277344 -0.828125 2.386719 -0.941406 C 2.398438 -0.921875 2.417969 -0.898438 2.441406 -0.875 C 2.5625 -0.742188 2.691406 -0.671875 2.824219 -0.671875 C 2.964844 -0.671875 3.082031 -0.851562 3.183594 -1.199219 L 2.988281 -1.3125 C 2.921875 -1.035156 2.859375 -0.898438 2.800781 -0.898438 C 2.726562 -0.898438 2.644531 -0.957031 2.558594 -1.074219 L 2.53125 -1.121094 C 2.683594 -1.332031 2.808594 -1.601562 2.914062 -1.925781 L 2.726562 -2.023438 C 2.644531 -1.761719 2.542969 -1.539062 2.421875 -1.347656 C 2.390625 -1.429688 2.363281 -1.523438 2.339844 -1.625 C 2.300781 -1.777344 2.273438 -1.96875 2.261719 -2.203125 L 3.046875 -2.203125 Z M 0.539062 -0.636719 C 0.460938 -0.371094 0.335938 -0.125 0.171875 0.09375 L 0.375 0.222656 C 0.539062 -0.0078125 0.667969 -0.277344 0.761719 -0.589844 Z M 2.101562 0.28125 C 2.226562 0.28125 2.316406 0.257812 2.375 0.210938 C 2.441406 0.148438 2.488281 -0.0078125 2.507812 -0.265625 L 2.28125 -0.34375 C 2.265625 -0.148438 2.238281 -0.0351562 2.207031 0.00390625 C 2.175781 0.0351562 2.125 0.0546875 2.058594 0.0546875 L 1.351562 0.0546875 C 1.265625 0.0546875 1.226562 0.0078125 1.226562 -0.0859375 L 1.226562 -0.671875 L 0.984375 -0.671875 L 0.984375 -0.0351562 C 0.984375 0.171875 1.078125 0.28125 1.277344 0.28125 Z M 2.734375 -0.566406 L 2.539062 -0.445312 C 2.734375 -0.230469 2.882812 -0.03125 2.996094 0.148438 L 3.1875 0.0117188 C 3.082031 -0.152344 2.933594 -0.347656 2.734375 -0.566406 Z M 1.667969 -0.730469 L 1.488281 -0.621094 C 1.640625 -0.453125 1.761719 -0.300781 1.847656 -0.160156 L 2.027344 -0.285156 C 1.941406 -0.414062 1.824219 -0.5625 1.667969 -0.730469 Z "/>
</g>
<g id="glyph-0-2">
<path d="M 3.03125 -2.371094 L 1.917969 -2.371094 L 1.917969 0.1875 L 2.144531 0.1875 L 2.144531 -0.0351562 L 2.800781 -0.0351562 L 2.800781 0.179688 L 3.03125 0.179688 Z M 2.144531 -0.257812 L 2.144531 -2.144531 L 2.800781 -2.144531 L 2.800781 -0.257812 Z M 0.65625 -2.046875 L 0.980469 -2.046875 C 0.976562 -1.804688 0.964844 -1.582031 0.9375 -1.382812 L 0.207031 -1.382812 L 0.207031 -1.152344 L 0.902344 -1.152344 C 0.886719 -1.066406 0.867188 -0.984375 0.847656 -0.902344 C 0.734375 -0.511719 0.5 -0.191406 0.148438 0.0664062 L 0.304688 0.261719 C 0.65625 0.0078125 0.898438 -0.304688 1.035156 -0.679688 C 1.191406 -0.507812 1.382812 -0.261719 1.609375 0.0585938 L 1.753906 -0.164062 C 1.53125 -0.4375 1.3125 -0.683594 1.101562 -0.898438 C 1.121094 -0.980469 1.136719 -1.066406 1.152344 -1.152344 L 1.742188 -1.152344 L 1.742188 -1.382812 L 1.1875 -1.382812 C 1.210938 -1.582031 1.222656 -1.804688 1.226562 -2.046875 L 1.714844 -2.046875 L 1.714844 -2.277344 L 0.75 -2.277344 C 0.796875 -2.402344 0.839844 -2.539062 0.878906 -2.683594 L 0.644531 -2.734375 C 0.542969 -2.351562 0.386719 -2 0.167969 -1.679688 L 0.375 -1.546875 C 0.480469 -1.699219 0.574219 -1.867188 0.65625 -2.046875 Z "/>
</g>
<g id="glyph-0-3">
<path d="M 0.203125 -1.730469 L 0.203125 -1.511719 L 1.542969 -1.511719 L 1.542969 -1.25 L 0.507812 -1.25 L 0.507812 -0.375 L 0.742188 -0.375 L 0.742188 -1.039062 L 1.542969 -1.039062 L 1.542969 -0.75 C 1.175781 -0.394531 0.730469 -0.121094 0.207031 0.0742188 L 0.347656 0.285156 C 0.792969 0.0976562 1.191406 -0.164062 1.542969 -0.5 L 1.542969 0.34375 L 1.789062 0.34375 L 1.789062 -0.511719 C 2.148438 -0.183594 2.578125 0.078125 3.078125 0.265625 L 3.207031 0.0507812 C 2.625 -0.144531 2.152344 -0.40625 1.789062 -0.746094 L 1.789062 -1.039062 L 2.644531 -1.039062 L 2.644531 -0.671875 C 2.644531 -0.605469 2.609375 -0.570312 2.546875 -0.570312 L 2.328125 -0.578125 L 2.390625 -0.367188 L 2.617188 -0.367188 C 2.792969 -0.367188 2.882812 -0.453125 2.882812 -0.625 L 2.882812 -1.25 L 1.789062 -1.25 L 1.789062 -1.511719 L 3.128906 -1.511719 L 3.128906 -1.730469 L 1.789062 -1.730469 L 1.789062 -1.960938 L 1.542969 -1.960938 L 1.542969 -1.730469 Z M 0.632812 -2.238281 L 0.796875 -2.238281 C 0.890625 -2.101562 0.96875 -1.964844 1.035156 -1.820312 L 1.253906 -1.898438 C 1.199219 -2.003906 1.128906 -2.117188 1.046875 -2.238281 L 1.609375 -2.238281 L 1.609375 -2.449219 L 0.75 -2.449219 C 0.789062 -2.53125 0.828125 -2.625 0.859375 -2.714844 L 0.628906 -2.765625 C 0.535156 -2.492188 0.378906 -2.242188 0.167969 -2.015625 L 0.375 -1.886719 C 0.464844 -1.992188 0.554688 -2.109375 0.632812 -2.238281 Z M 2.027344 -2.238281 L 2.253906 -2.238281 C 2.339844 -2.101562 2.417969 -1.964844 2.488281 -1.820312 L 2.695312 -1.898438 C 2.644531 -2.003906 2.578125 -2.117188 2.5 -2.238281 L 3.121094 -2.238281 L 3.121094 -2.449219 L 2.121094 -2.449219 C 2.148438 -2.535156 2.175781 -2.625 2.203125 -2.714844 L 1.96875 -2.761719 C 1.902344 -2.507812 1.792969 -2.277344 1.644531 -2.066406 L 1.847656 -1.933594 C 1.914062 -2.027344 1.972656 -2.128906 2.027344 -2.238281 Z "/>
</g>
<g id="glyph-0-4">
<path d="M 2.945312 -0.917969 L 1.648438 -0.917969 L 1.648438 0.316406 L 1.878906 0.316406 L 1.878906 0.171875 L 2.714844 0.171875 L 2.714844 0.316406 L 2.945312 0.316406 Z M 1.878906 -0.0585938 L 1.878906 -0.695312 L 2.714844 -0.695312 L 2.714844 -0.0585938 Z M 0.476562 -0.101562 L 1.160156 -0.101562 L 1.160156 0.0507812 L 1.367188 0.0507812 L 1.367188 -1.070312 L 1.488281 -0.910156 C 1.804688 -1.042969 2.082031 -1.199219 2.316406 -1.382812 C 2.535156 -1.210938 2.800781 -1.054688 3.109375 -0.917969 L 3.214844 -1.132812 C 2.925781 -1.242188 2.683594 -1.375 2.476562 -1.523438 C 2.691406 -1.730469 2.855469 -1.964844 2.96875 -2.234375 L 2.96875 -2.417969 L 2.066406 -2.417969 C 2.101562 -2.496094 2.140625 -2.578125 2.179688 -2.667969 L 1.941406 -2.71875 C 1.792969 -2.359375 1.601562 -2.070312 1.371094 -1.847656 L 1.527344 -1.664062 C 1.621094 -1.753906 1.707031 -1.851562 1.785156 -1.964844 C 1.878906 -1.8125 2 -1.667969 2.140625 -1.535156 C 1.929688 -1.375 1.671875 -1.230469 1.367188 -1.109375 L 1.367188 -2.488281 L 0.261719 -2.488281 L 0.261719 0.0507812 L 0.476562 0.0507812 Z M 1.160156 -0.316406 L 0.914062 -0.316406 L 0.914062 -1.199219 L 1.160156 -1.199219 Z M 1.160156 -1.410156 L 0.914062 -1.410156 L 0.914062 -2.265625 L 1.160156 -2.265625 Z M 0.71875 -2.265625 L 0.71875 -1.410156 L 0.476562 -1.410156 L 0.476562 -2.265625 Z M 0.476562 -1.199219 L 0.71875 -1.199219 L 0.71875 -0.316406 L 0.476562 -0.316406 Z M 2.296875 -1.667969 C 2.136719 -1.808594 2.011719 -1.964844 1.910156 -2.140625 C 1.917969 -2.15625 1.925781 -2.171875 1.941406 -2.191406 L 2.695312 -2.191406 C 2.597656 -2.003906 2.464844 -1.828125 2.296875 -1.667969 Z "/>
</g>
</g>
</defs>
<g fill="rgb(73.333333%, 73.333333%, 73.333333%)" fill-opacity="1">
<use xlink:href="#glyph-0-0" x="30" y="23.533203"/>
<use xlink:href="#glyph-0-1" x="33" y="23.533203"/>
<use xlink:href="#glyph-0-2" x="36" y="23.533203"/>
<use xlink:href="#glyph-0-3" x="39" y="23.533203"/>
<use xlink:href="#glyph-0-4" x="42" y="23.533203"/>
</g>
</svg>
