<?xml version="1.0" encoding="UTF-8"?>
<svg xmlns="http://www.w3.org/2000/svg" xmlns:xlink="http://www.w3.org/1999/xlink" width="1280" height="720" viewBox="0 0 1280 720">
<defs>
<g>
<g id="glyph-0-0">
<path d="M 1.683594 -1.867188 C 1.683594 -2.105469 1.582031 -2.269531 1.375 -2.355469 C 1.265625 -2.40625 1.125 -2.429688 0.957031 -2.429688 C 0.878906 -2.429688 0.828125 -2.421875 0.808594 -2.40625 C 0.792969 -2.390625 0.78125 -2.355469 0.78125 -2.300781 L 0.78125 -1.285156 C 0.851562 -1.277344 0.898438 -1.277344 0.917969 -1.273438 C 0.941406 -1.273438 0.960938 -1.273438 0.980469 -1.273438 C 1.160156 -1.273438 1.300781 -1.296875 1.402344 -1.347656 C 1.589844 -1.441406 1.683594 -1.613281 1.683594 -1.867188 Z M 0.0625 -0.0703125 C 0.210938 -0.0859375 0.304688 -0.113281 0.339844 -0.160156 C 0.375 -0.203125 0.394531 -0.304688 0.394531 -0.46875 L 0.394531 -2.152344 C 0.394531 -2.289062 0.375 -2.375 0.332031 -2.417969 C 0.292969 -2.460938 0.203125 -2.488281 0.0625 -2.5 L 0.0625 -2.574219 L 1.089844 -2.574219 C 1.417969 -2.574219 1.667969 -2.507812 1.84375 -2.382812 C 2.019531 -2.253906 2.105469 -2.085938 2.105469 -1.875 C 2.105469 -1.613281 2.007812 -1.421875 1.816406 -1.300781 C 1.621094 -1.183594 1.378906 -1.121094 1.089844 -1.121094 C 1.046875 -1.121094 0.992188 -1.125 0.929688 -1.125 C 0.863281 -1.128906 0.8125 -1.128906 0.78125 -1.128906 L 0.78125 -0.421875 C 0.78125 -0.273438 0.804688 -0.183594 0.851562 -0.144531 C 0.894531 -0.105469 0.996094 -0.0820312 1.152344 -0.0703125 L 1.152344 0 L 0.0625 0 Z "/>
</g>
<g id="glyph-0-1">
<path d="M 0.0976562 -0.882812 C 0.0976562 -1.132812 0.179688 -1.347656 0.339844 -1.519531 C 0.5 -1.695312 0.707031 -1.78125 0.957031 -1.78125 C 1.207031 -1.78125 1.414062 -1.699219 1.582031 -1.535156 C 1.746094 -1.371094 1.828125 -1.152344 1.828125 -0.878906 C 1.828125 -0.625 1.746094 -0.40625 1.585938 -0.21875 C 1.425781 -0.0351562 1.222656 0.0585938 0.96875 0.0585938 C 0.726562 0.0585938 0.519531 -0.03125 0.351562 -0.207031 C 0.183594 -0.386719 0.0976562 -0.613281 0.0976562 -0.882812 Z M 0.902344 -1.667969 C 0.804688 -1.667969 0.71875 -1.632812 0.644531 -1.570312 C 0.515625 -1.453125 0.453125 -1.253906 0.453125 -0.972656 C 0.453125 -0.746094 0.503906 -0.535156 0.605469 -0.34375 C 0.707031 -0.148438 0.851562 -0.0507812 1.03125 -0.0507812 C 1.171875 -0.0507812 1.28125 -0.113281 1.359375 -0.246094 C 1.4375 -0.375 1.472656 -0.546875 1.472656 -0.757812 C 1.472656 -0.976562 1.425781 -1.183594 1.328125 -1.375 C 1.230469 -1.570312 1.089844 -1.667969 0.902344 -1.667969 Z "/>
</g>
<g id="glyph-0-2">
<path d="M 0.078125 -0.0546875 C 0.195312 -0.0664062 0.277344 -0.0898438 0.320312 -0.125 C 0.359375 -0.160156 0.382812 -0.230469 0.382812 -0.335938 L 0.382812 -2.191406 C 0.382812 -2.273438 0.375 -2.332031 0.359375 -2.363281 C 0.335938 -2.417969 0.285156 -2.445312 0.207031 -2.445312 C 0.1875 -2.445312 0.171875 -2.441406 0.148438 -2.4375 C 0.128906 -2.433594 0.101562 -2.429688 0.0703125 -2.421875 L 0.0703125 -2.484375 C 0.242188 -2.53125 0.445312 -2.589844 0.6875 -2.667969 C 0.695312 -2.667969 0.703125 -2.664062 0.703125 -2.65625 C 0.707031 -2.648438 0.707031 -2.632812 0.707031 -2.605469 L 0.707031 -0.328125 C 0.707031 -0.21875 0.726562 -0.148438 0.761719 -0.113281 C 0.800781 -0.0820312 0.878906 -0.0625 1 -0.0546875 L 1 0 L 0.078125 0 Z "/>
</g>
<g id="glyph-0-3">
<path d="M 0.320312 -2.453125 C 0.320312 -2.507812 0.339844 -2.554688 0.375 -2.59375 C 0.414062 -2.632812 0.460938 -2.652344 0.515625 -2.652344 C 0.570312 -2.652344 0.617188 -2.632812 0.65625 -2.59375 C 0.695312 -2.554688 0.714844 -2.507812 0.714844 -2.453125 C 0.714844 -2.398438 0.695312 -2.351562 0.65625 -2.3125 C 0.617188 -2.273438 0.570312 -2.253906 0.515625 -2.253906 C 0.460938 -2.253906 0.414062 -2.273438 0.375 -2.3125 C 0.335938 -2.351562 0.320312 -2.398438 0.320312 -2.453125 Z M 0.0742188 -0.0546875 C 0.210938 -0.0664062 0.296875 -0.0898438 0.332031 -0.121094 C 0.367188 -0.15625 0.386719 -0.246094 0.386719 -0.394531 L 0.386719 -1.300781 C 0.386719 -1.382812 0.378906 -1.441406 0.367188 -1.472656 C 0.347656 -1.523438 0.308594 -1.550781 0.25 -1.550781 C 0.234375 -1.550781 0.222656 -1.546875 0.207031 -1.546875 C 0.195312 -1.542969 0.15625 -1.535156 0.09375 -1.515625 L 0.09375 -1.574219 L 0.175781 -1.601562 C 0.398438 -1.671875 0.550781 -1.726562 0.636719 -1.765625 C 0.671875 -1.78125 0.695312 -1.789062 0.707031 -1.789062 C 0.710938 -1.777344 0.710938 -1.769531 0.710938 -1.757812 L 0.710938 -0.394531 C 0.710938 -0.25 0.726562 -0.160156 0.761719 -0.125 C 0.796875 -0.0859375 0.875 -0.0625 1 -0.0546875 L 1 0 L 0.0742188 0 Z "/>
</g>
<g id="glyph-0-4">
<path d="M 0.964844 -1.789062 C 1.125 -1.789062 1.261719 -1.75 1.375 -1.667969 C 1.492188 -1.585938 1.546875 -1.496094 1.546875 -1.398438 C 1.546875 -1.359375 1.535156 -1.320312 1.503906 -1.28125 C 1.476562 -1.246094 1.429688 -1.230469 1.371094 -1.230469 C 1.324219 -1.230469 1.285156 -1.242188 1.253906 -1.273438 C 1.21875 -1.304688 1.195312 -1.347656 1.179688 -1.40625 L 1.15625 -1.5 C 1.140625 -1.566406 1.113281 -1.613281 1.070312 -1.640625 C 1.027344 -1.667969 0.972656 -1.679688 0.90625 -1.679688 C 0.761719 -1.679688 0.640625 -1.617188 0.539062 -1.492188 C 0.441406 -1.367188 0.390625 -1.199219 0.390625 -0.988281 C 0.390625 -0.796875 0.445312 -0.625 0.554688 -0.476562 C 0.664062 -0.324219 0.8125 -0.246094 1 -0.246094 C 1.132812 -0.246094 1.246094 -0.289062 1.351562 -0.375 C 1.410156 -0.425781 1.472656 -0.503906 1.546875 -0.613281 L 1.601562 -0.578125 C 1.527344 -0.425781 1.453125 -0.308594 1.375 -0.21875 C 1.21875 -0.0507812 1.042969 0.0351562 0.839844 0.0351562 C 0.644531 0.0351562 0.46875 -0.0429688 0.316406 -0.199219 C 0.164062 -0.355469 0.0898438 -0.566406 0.0898438 -0.832031 C 0.0898438 -1.09375 0.171875 -1.320312 0.339844 -1.507812 C 0.503906 -1.695312 0.714844 -1.789062 0.964844 -1.789062 Z "/>
</g>
<g id="glyph-0-5">
<path d="M 0.0546875 -1.746094 L 0.855469 -1.746094 L 0.855469 -1.6875 C 0.792969 -1.6875 0.746094 -1.679688 0.714844 -1.667969 C 0.65625 -1.652344 0.625 -1.621094 0.625 -1.574219 C 0.625 -1.554688 0.628906 -1.535156 0.636719 -1.519531 C 0.644531 -1.5 0.652344 -1.472656 0.671875 -1.4375 L 1.113281 -0.449219 L 1.472656 -1.445312 C 1.476562 -1.453125 1.480469 -1.476562 1.488281 -1.511719 C 1.496094 -1.546875 1.503906 -1.570312 1.503906 -1.582031 C 1.503906 -1.617188 1.492188 -1.640625 1.46875 -1.65625 C 1.445312 -1.671875 1.417969 -1.679688 1.378906 -1.683594 L 1.320312 -1.6875 L 1.320312 -1.746094 L 1.84375 -1.746094 L 1.84375 -1.6875 C 1.792969 -1.679688 1.753906 -1.664062 1.726562 -1.632812 C 1.699219 -1.605469 1.679688 -1.5625 1.660156 -1.511719 L 1.0625 0.0703125 C 0.957031 0.34375 0.859375 0.542969 0.761719 0.667969 C 0.667969 0.789062 0.546875 0.851562 0.402344 0.851562 C 0.332031 0.851562 0.265625 0.832031 0.203125 0.796875 C 0.140625 0.761719 0.109375 0.707031 0.109375 0.628906 C 0.109375 0.578125 0.128906 0.535156 0.167969 0.503906 C 0.203125 0.472656 0.25 0.457031 0.308594 0.457031 C 0.339844 0.457031 0.390625 0.46875 0.453125 0.492188 C 0.519531 0.515625 0.566406 0.527344 0.59375 0.527344 C 0.664062 0.527344 0.738281 0.445312 0.820312 0.28125 C 0.898438 0.117188 0.9375 0.0078125 0.9375 -0.0507812 C 0.9375 -0.0625 0.933594 -0.0742188 0.929688 -0.0898438 C 0.925781 -0.105469 0.921875 -0.121094 0.917969 -0.136719 L 0.308594 -1.449219 C 0.265625 -1.542969 0.230469 -1.605469 0.195312 -1.632812 C 0.164062 -1.664062 0.117188 -1.683594 0.0546875 -1.691406 Z "/>
</g>
</g>
</defs>
<g fill="rgb(100%, 100%, 100%)" fill-opacity="1">
<use xlink:href="#glyph-0-0" x="30" y="22.916992"/>
<use xlink:href="#glyph-0-1" x="32" y="22.916992"/>
<use xlink:href="#glyph-0-2" x="34" y="22.916992"/>
<use xlink:href="#glyph-0-3" x="35" y="22.916992"/>
<use xlink:href="#glyph-0-4" x="36" y="22.916992"/>
<use xlink:href="#glyph-0-5" x="38" y="22.916992"/>
</g>
</svg>
