<?xml version="1.0" encoding="UTF-8"?>
<svg xmlns="http://www.w3.org/2000/svg" xmlns:xlink="http://www.w3.org/1999/xlink" width="854" height="480" viewBox="0 0 854 480">
<defs>
<g>
<g id="glyph-0-0">
<path d="M 2.054688 -3.742188 C 2.269531 -3.742188 2.484375 -3.710938 2.691406 -3.652344 C 2.898438 -3.59375 3.019531 -3.5625 3.050781 -3.5625 C 3.128906 -3.5625 3.183594 -3.578125 3.21875 -3.609375 C 3.253906 -3.640625 3.28125 -3.683594 3.304688 -3.742188 L 3.425781 -3.742188 L 3.46875 -2.570312 L 3.34375 -2.570312 C 3.230469 -2.839844 3.109375 -3.042969 2.988281 -3.175781 C 2.769531 -3.40625 2.484375 -3.519531 2.136719 -3.519531 C 1.777344 -3.519531 1.464844 -3.386719 1.195312 -3.117188 C 0.925781 -2.847656 0.789062 -2.398438 0.789062 -1.78125 C 0.789062 -1.269531 0.925781 -0.867188 1.195312 -0.582031 C 1.464844 -0.292969 1.796875 -0.148438 2.191406 -0.148438 C 2.257812 -0.148438 2.335938 -0.15625 2.429688 -0.167969 C 2.519531 -0.179688 2.605469 -0.199219 2.6875 -0.226562 C 2.816406 -0.269531 2.898438 -0.308594 2.933594 -0.339844 C 2.964844 -0.371094 2.980469 -0.417969 2.980469 -0.480469 L 2.980469 -1.367188 C 2.980469 -1.582031 2.949219 -1.714844 2.890625 -1.765625 C 2.828125 -1.816406 2.699219 -1.851562 2.492188 -1.863281 L 2.492188 -1.964844 L 3.910156 -1.964844 L 3.910156 -1.863281 C 3.773438 -1.855469 3.679688 -1.832031 3.636719 -1.796875 C 3.558594 -1.738281 3.519531 -1.617188 3.519531 -1.4375 L 3.519531 -0.34375 C 3.519531 -0.277344 3.363281 -0.191406 3.042969 -0.0859375 C 2.722656 0.0234375 2.417969 0.078125 2.121094 0.078125 C 1.578125 0.078125 1.121094 -0.078125 0.75 -0.394531 C 0.339844 -0.746094 0.132812 -1.214844 0.132812 -1.800781 C 0.132812 -2.316406 0.296875 -2.761719 0.625 -3.128906 C 0.984375 -3.535156 1.460938 -3.742188 2.054688 -3.742188 Z "/>
</g>
<g id="glyph-0-1">
<path d="M 1.105469 -1.902344 C 1.503906 -1.917969 1.789062 -1.957031 1.960938 -2.027344 C 2.257812 -2.148438 2.402344 -2.375 2.402344 -2.710938 C 2.402344 -3.03125 2.269531 -3.25 2.007812 -3.371094 C 1.867188 -3.433594 1.679688 -3.464844 1.445312 -3.464844 C 1.289062 -3.464844 1.191406 -3.453125 1.15625 -3.429688 C 1.121094 -3.40625 1.105469 -3.355469 1.105469 -3.273438 Z M 0.0625 -0.101562 C 0.277344 -0.121094 0.410156 -0.160156 0.460938 -0.226562 C 0.511719 -0.289062 0.539062 -0.4375 0.539062 -0.667969 L 0.539062 -3.074219 C 0.539062 -3.269531 0.511719 -3.398438 0.453125 -3.457031 C 0.394531 -3.519531 0.261719 -3.554688 0.0625 -3.574219 L 0.0625 -3.675781 L 1.601562 -3.675781 C 1.921875 -3.675781 2.1875 -3.636719 2.402344 -3.554688 C 2.804688 -3.398438 3.007812 -3.117188 3.007812 -2.703125 C 3.007812 -2.425781 2.917969 -2.214844 2.738281 -2.066406 C 2.558594 -1.917969 2.3125 -1.820312 2.003906 -1.773438 L 3.148438 -0.367188 C 3.21875 -0.28125 3.289062 -0.214844 3.359375 -0.175781 C 3.429688 -0.136719 3.523438 -0.109375 3.632812 -0.101562 L 3.632812 0 L 2.738281 0 L 1.414062 -1.710938 L 1.105469 -1.695312 L 1.105469 -0.601562 C 1.105469 -0.394531 1.136719 -0.265625 1.199219 -0.210938 C 1.261719 -0.15625 1.394531 -0.117188 1.605469 -0.101562 L 1.605469 0 L 0.0625 0 Z "/>
</g>
<g id="glyph-0-2">
<path d="M 2.402344 -2.667969 C 2.402344 -3.007812 2.257812 -3.238281 1.964844 -3.367188 C 1.808594 -3.433594 1.609375 -3.46875 1.367188 -3.46875 C 1.253906 -3.46875 1.183594 -3.457031 1.15625 -3.4375 C 1.128906 -3.414062 1.117188 -3.363281 1.117188 -3.285156 L 1.117188 -1.835938 C 1.21875 -1.828125 1.28125 -1.820312 1.3125 -1.820312 C 1.34375 -1.820312 1.375 -1.816406 1.402344 -1.816406 C 1.65625 -1.816406 1.859375 -1.855469 2.003906 -1.925781 C 2.269531 -2.058594 2.402344 -2.304688 2.402344 -2.667969 Z M 0.0898438 -0.101562 C 0.300781 -0.121094 0.433594 -0.164062 0.484375 -0.226562 C 0.539062 -0.289062 0.5625 -0.4375 0.5625 -0.667969 L 0.5625 -3.074219 C 0.5625 -3.265625 0.535156 -3.394531 0.476562 -3.457031 C 0.417969 -3.519531 0.289062 -3.554688 0.0898438 -3.574219 L 0.0898438 -3.675781 L 1.554688 -3.675781 C 2.023438 -3.675781 2.382812 -3.585938 2.632812 -3.402344 C 2.882812 -3.21875 3.007812 -2.980469 3.007812 -2.679688 C 3.007812 -2.300781 2.871094 -2.027344 2.59375 -1.859375 C 2.316406 -1.6875 1.96875 -1.601562 1.554688 -1.601562 C 1.496094 -1.601562 1.417969 -1.605469 1.324219 -1.605469 C 1.230469 -1.609375 1.164062 -1.613281 1.117188 -1.613281 L 1.117188 -0.601562 C 1.117188 -0.390625 1.148438 -0.261719 1.214844 -0.207031 C 1.277344 -0.152344 1.421875 -0.117188 1.644531 -0.101562 L 1.644531 0 L 0.0898438 0 Z "/>
</g>
<g id="glyph-0-3">
<path d="M 0.792969 -1.835938 C 0.792969 -1.253906 0.910156 -0.820312 1.140625 -0.542969 C 1.371094 -0.261719 1.652344 -0.121094 1.984375 -0.121094 C 2.3125 -0.121094 2.59375 -0.257812 2.824219 -0.53125 C 3.058594 -0.804688 3.175781 -1.238281 3.175781 -1.835938 C 3.175781 -2.441406 3.054688 -2.878906 2.820312 -3.148438 C 2.585938 -3.417969 2.308594 -3.554688 1.984375 -3.554688 C 1.652344 -3.554688 1.371094 -3.414062 1.140625 -3.132812 C 0.910156 -2.855469 0.792969 -2.421875 0.792969 -1.835938 Z M 0.164062 -1.835938 C 0.164062 -2.429688 0.351562 -2.90625 0.722656 -3.261719 C 1.066406 -3.589844 1.488281 -3.753906 1.984375 -3.753906 C 2.484375 -3.753906 2.90625 -3.589844 3.25 -3.261719 C 3.621094 -2.90625 3.804688 -2.429688 3.804688 -1.835938 C 3.804688 -1.234375 3.613281 -0.753906 3.230469 -0.398438 C 2.886719 -0.0820312 2.472656 0.078125 1.984375 0.078125 C 1.464844 0.078125 1.03125 -0.0976562 0.6875 -0.449219 C 0.339844 -0.808594 0.164062 -1.273438 0.164062 -1.835938 Z "/>
</g>
</g>
</defs>
<g fill="rgb(98.823529%, 38.431373%, 33.333333%)" fill-opacity="1">
<use xlink:href="#glyph-0-0" x="30" y="24.166992"/>
<use xlink:href="#glyph-0-1" x="34" y="24.166992"/>
<use xlink:href="#glyph-0-2" x="38" y="24.166992"/>
<use xlink:href="#glyph-0-3" x="41" y="24.166992"/>
</g>
</svg>
