<?xml version="1.0" encoding="UTF-8"?>
<svg xmlns="http://www.w3.org/2000/svg" xmlns:xlink="http://www.w3.org/1999/xlink" width="854" height="480" viewBox="0 0 854 480">
<defs>
<g>
<g id="glyph-0-0">
<path d="M 1.664062 -1.867188 C 1.8125 -1.867188 1.964844 -1.90625 2.121094 -1.988281 C 2.277344 -2.070312 2.367188 -2.140625 2.390625 -2.199219 C 2.398438 -2.21875 2.40625 -2.300781 2.414062 -2.441406 C 2.417969 -2.582031 2.421875 -2.691406 2.421875 -2.78125 C 2.421875 -3.230469 2.347656 -3.597656 2.195312 -3.878906 C 2.042969 -4.160156 1.820312 -4.304688 1.527344 -4.304688 C 1.3125 -4.304688 1.140625 -4.207031 1.011719 -4.015625 C 0.878906 -3.820312 0.8125 -3.53125 0.8125 -3.148438 C 0.8125 -2.832031 0.875 -2.539062 0.996094 -2.269531 C 1.121094 -2 1.34375 -1.867188 1.664062 -1.867188 Z M 1.574219 -4.488281 C 2.050781 -4.488281 2.417969 -4.296875 2.679688 -3.917969 C 2.941406 -3.535156 3.070312 -3.113281 3.070312 -2.644531 C 3.070312 -2.3125 3.007812 -1.976562 2.882812 -1.636719 C 2.761719 -1.296875 2.582031 -0.992188 2.34375 -0.726562 C 2.066406 -0.417969 1.71875 -0.1875 1.296875 -0.0390625 C 1.058594 0.046875 0.761719 0.109375 0.402344 0.15625 L 0.367188 0.0273438 C 0.59375 -0.0273438 0.78125 -0.0820312 0.929688 -0.140625 C 1.199219 -0.246094 1.417969 -0.375 1.578125 -0.53125 C 1.808594 -0.75 1.992188 -0.996094 2.128906 -1.265625 C 2.269531 -1.535156 2.355469 -1.761719 2.390625 -1.945312 L 2.277344 -1.859375 C 2.117188 -1.738281 1.925781 -1.652344 1.710938 -1.609375 C 1.597656 -1.582031 1.492188 -1.570312 1.398438 -1.570312 C 1.03125 -1.570312 0.738281 -1.699219 0.523438 -1.960938 C 0.308594 -2.222656 0.199219 -2.535156 0.199219 -2.898438 C 0.199219 -3.359375 0.328125 -3.742188 0.585938 -4.039062 C 0.84375 -4.339844 1.171875 -4.488281 1.574219 -4.488281 Z "/>
</g>
<g id="glyph-0-1">
<path d="M 1.675781 -0.109375 C 1.925781 -0.109375 2.113281 -0.179688 2.242188 -0.320312 C 2.371094 -0.457031 2.433594 -0.632812 2.433594 -0.839844 C 2.433594 -1.078125 2.367188 -1.269531 2.230469 -1.414062 C 2.09375 -1.5625 1.816406 -1.78125 1.398438 -2.082031 C 1.210938 -1.964844 1.074219 -1.8125 0.988281 -1.625 C 0.90625 -1.4375 0.863281 -1.257812 0.863281 -1.085938 C 0.863281 -0.789062 0.9375 -0.550781 1.09375 -0.375 C 1.246094 -0.199219 1.441406 -0.109375 1.675781 -0.109375 Z M 1.71875 -2.597656 C 1.921875 -2.742188 2.0625 -2.863281 2.140625 -2.960938 C 2.277344 -3.125 2.34375 -3.328125 2.34375 -3.566406 C 2.34375 -3.769531 2.28125 -3.945312 2.152344 -4.089844 C 2.027344 -4.234375 1.832031 -4.308594 1.574219 -4.308594 C 1.375 -4.308594 1.210938 -4.242188 1.082031 -4.117188 C 0.949219 -3.992188 0.886719 -3.839844 0.886719 -3.660156 C 0.886719 -3.457031 0.960938 -3.265625 1.113281 -3.089844 C 1.265625 -2.914062 1.46875 -2.75 1.71875 -2.597656 Z M 1.21875 -2.21875 C 0.929688 -2.449219 0.734375 -2.632812 0.632812 -2.769531 C 0.472656 -2.976562 0.390625 -3.207031 0.390625 -3.460938 C 0.390625 -3.746094 0.507812 -3.988281 0.746094 -4.191406 C 0.984375 -4.390625 1.292969 -4.488281 1.671875 -4.488281 C 2.023438 -4.488281 2.300781 -4.394531 2.507812 -4.207031 C 2.714844 -4.015625 2.816406 -3.796875 2.816406 -3.546875 C 2.816406 -3.292969 2.710938 -3.066406 2.5 -2.863281 C 2.378906 -2.75 2.183594 -2.617188 1.910156 -2.46875 C 2.28125 -2.195312 2.542969 -1.957031 2.703125 -1.753906 C 2.863281 -1.550781 2.941406 -1.3125 2.941406 -1.035156 C 2.941406 -0.722656 2.824219 -0.460938 2.589844 -0.246094 C 2.355469 -0.0351562 2.039062 0.0703125 1.644531 0.0703125 C 1.289062 0.0703125 0.988281 -0.0273438 0.734375 -0.222656 C 0.480469 -0.417969 0.355469 -0.679688 0.355469 -1 C 0.355469 -1.273438 0.441406 -1.519531 0.617188 -1.730469 C 0.734375 -1.867188 0.933594 -2.027344 1.21875 -2.21875 Z "/>
</g>
<g id="glyph-0-2">
<path d="M 1.84375 -4.410156 C 1.976562 -4.410156 2.085938 -4.394531 2.171875 -4.359375 C 2.21875 -4.339844 2.261719 -4.3125 2.304688 -4.273438 L 2.429688 -4.164062 C 2.480469 -4.121094 2.550781 -4.089844 2.640625 -4.074219 C 2.730469 -4.054688 2.824219 -4.046875 2.921875 -4.046875 C 3.171875 -4.046875 3.398438 -4.105469 3.609375 -4.230469 C 3.722656 -4.292969 3.839844 -4.382812 3.964844 -4.503906 L 4.226562 -4.503906 L 1.65625 0.09375 L 1.339844 0.09375 L 3.664062 -4.074219 C 3.5 -3.996094 3.378906 -3.945312 3.296875 -3.921875 C 3.21875 -3.898438 3.109375 -3.886719 2.980469 -3.886719 C 2.863281 -3.886719 2.761719 -3.894531 2.675781 -3.910156 C 2.621094 -3.917969 2.566406 -3.929688 2.511719 -3.949219 C 2.53125 -3.890625 2.542969 -3.84375 2.550781 -3.804688 C 2.554688 -3.765625 2.558594 -3.707031 2.558594 -3.625 C 2.558594 -3.234375 2.429688 -2.855469 2.167969 -2.480469 C 1.90625 -2.109375 1.585938 -1.925781 1.203125 -1.925781 C 1.003906 -1.925781 0.820312 -2 0.65625 -2.15625 C 0.488281 -2.308594 0.40625 -2.535156 0.40625 -2.832031 C 0.40625 -3.191406 0.550781 -3.542969 0.84375 -3.890625 C 1.132812 -4.238281 1.46875 -4.410156 1.84375 -4.410156 Z M 3.9375 -0.199219 C 4.203125 -0.199219 4.441406 -0.371094 4.652344 -0.71875 C 4.863281 -1.0625 4.972656 -1.382812 4.972656 -1.679688 C 4.972656 -1.863281 4.925781 -2.003906 4.835938 -2.105469 C 4.746094 -2.207031 4.632812 -2.257812 4.488281 -2.257812 C 4.230469 -2.257812 4 -2.0625 3.800781 -1.667969 C 3.597656 -1.273438 3.496094 -0.929688 3.496094 -0.640625 C 3.496094 -0.496094 3.539062 -0.386719 3.621094 -0.3125 C 3.703125 -0.238281 3.808594 -0.199219 3.9375 -0.199219 Z M 2.992188 -0.910156 C 2.992188 -1.285156 3.140625 -1.636719 3.4375 -1.972656 C 3.738281 -2.304688 4.066406 -2.472656 4.429688 -2.472656 C 4.617188 -2.472656 4.785156 -2.414062 4.933594 -2.300781 C 5.078125 -2.1875 5.148438 -1.980469 5.148438 -1.671875 C 5.148438 -1.34375 5.027344 -0.984375 4.777344 -0.585938 C 4.53125 -0.1875 4.203125 0.0117188 3.800781 0.0117188 C 3.582031 0.0117188 3.390625 -0.0664062 3.230469 -0.214844 C 3.070312 -0.363281 2.992188 -0.59375 2.992188 -0.910156 Z M 1.324219 -2.152344 C 1.589844 -2.152344 1.835938 -2.3125 2.058594 -2.636719 C 2.277344 -2.960938 2.390625 -3.3125 2.390625 -3.695312 C 2.390625 -3.832031 2.375 -3.917969 2.34375 -3.957031 C 2.316406 -3.996094 2.265625 -4.027344 2.191406 -4.042969 C 2.140625 -4.054688 2.078125 -4.089844 2.007812 -4.140625 C 1.9375 -4.191406 1.894531 -4.214844 1.878906 -4.214844 C 1.667969 -4.214844 1.453125 -4.027344 1.234375 -3.652344 C 1.015625 -3.273438 0.910156 -2.925781 0.910156 -2.609375 C 0.910156 -2.46875 0.941406 -2.355469 1.011719 -2.273438 C 1.078125 -2.191406 1.183594 -2.152344 1.324219 -2.152344 Z "/>
</g>
</g>
</defs>
<g fill="rgb(100%, 100%, 100%)" fill-opacity="1">
<use xlink:href="#glyph-0-0" x="30" y="25"/>
<use xlink:href="#glyph-0-1" x="33" y="25"/>
<use xlink:href="#glyph-0-2" x="36" y="25"/>
</g>
</svg>
