<?xml version="1.0" encoding="UTF-8"?>
<svg xmlns="http://www.w3.org/2000/svg" xmlns:xlink="http://www.w3.org/1999/xlink" width="854" height="480" viewBox="0 0 854 480">
<defs>
<g>
<g id="glyph-0-0">
<path d="M 0.292969 -1.910156 L 1.910156 -1.910156 L 1.910156 -1.140625 L 0.292969 -1.140625 Z "/>
</g>
<g id="glyph-0-1">
<path d="M 0.40625 -4.503906 L 3.175781 -4.503906 L 1.613281 0 L 0.980469 0 L 2.28125 -3.542969 C 2.28125 -3.566406 2.273438 -3.585938 2.265625 -3.59375 L 0.992188 -3.59375 C 0.785156 -3.59375 0.632812 -3.558594 0.535156 -3.492188 C 0.4375 -3.425781 0.351562 -3.269531 0.277344 -3.023438 L 0.113281 -3.023438 Z "/>
</g>
<g id="glyph-0-2">
<path d="M 0.113281 -0.152344 C 0.824219 -0.921875 1.285156 -1.457031 1.5 -1.757812 C 1.832031 -2.214844 1.996094 -2.617188 1.996094 -2.96875 C 1.996094 -3.175781 1.933594 -3.371094 1.804688 -3.554688 C 1.679688 -3.734375 1.480469 -3.824219 1.214844 -3.824219 C 0.980469 -3.824219 0.78125 -3.742188 0.621094 -3.582031 C 0.535156 -3.492188 0.457031 -3.371094 0.390625 -3.222656 L 0.207031 -3.222656 C 0.355469 -3.683594 0.558594 -4.027344 0.820312 -4.25 C 1.082031 -4.472656 1.375 -4.582031 1.699219 -4.582031 C 2.007812 -4.582031 2.289062 -4.476562 2.539062 -4.261719 C 2.789062 -4.046875 2.917969 -3.734375 2.917969 -3.320312 C 2.917969 -3.101562 2.859375 -2.882812 2.738281 -2.652344 C 2.621094 -2.425781 2.421875 -2.179688 2.140625 -1.910156 L 1.125 -0.941406 L 1.125 -0.886719 L 2.074219 -0.886719 C 2.402344 -0.886719 2.617188 -0.914062 2.71875 -0.96875 C 2.820312 -1.023438 2.921875 -1.167969 3.023438 -1.402344 L 3.183594 -1.402344 L 2.882812 0 L 0.113281 0 Z "/>
</g>
<g id="glyph-0-3">
<path d="M 4.679688 -0.339844 C 4.921875 -0.339844 5.140625 -0.511719 5.332031 -0.859375 C 5.527344 -1.203125 5.625 -1.507812 5.625 -1.765625 C 5.625 -1.90625 5.59375 -2.027344 5.535156 -2.121094 C 5.472656 -2.21875 5.382812 -2.265625 5.265625 -2.265625 C 5.039062 -2.265625 4.828125 -2.058594 4.632812 -1.640625 C 4.4375 -1.222656 4.34375 -0.914062 4.34375 -0.722656 C 4.34375 -0.589844 4.375 -0.492188 4.4375 -0.429688 C 4.503906 -0.367188 4.582031 -0.339844 4.679688 -0.339844 Z M 5.074219 -2.609375 C 5.304688 -2.609375 5.492188 -2.539062 5.632812 -2.398438 C 5.773438 -2.261719 5.847656 -2.054688 5.847656 -1.789062 C 5.847656 -1.421875 5.71875 -1.039062 5.464844 -0.636719 C 5.210938 -0.230469 4.871094 -0.03125 4.445312 -0.03125 C 4.203125 -0.03125 3.996094 -0.117188 3.820312 -0.292969 C 3.648438 -0.46875 3.5625 -0.695312 3.5625 -0.96875 C 3.5625 -1.363281 3.71875 -1.738281 4.03125 -2.085938 C 4.34375 -2.433594 4.691406 -2.609375 5.074219 -2.609375 Z M 1.910156 -2.265625 C 2.15625 -2.265625 2.378906 -2.441406 2.578125 -2.789062 C 2.773438 -3.140625 2.871094 -3.472656 2.871094 -3.792969 C 2.871094 -3.890625 2.867188 -3.949219 2.855469 -3.976562 C 2.84375 -4 2.8125 -4.019531 2.761719 -4.042969 C 2.707031 -4.066406 2.652344 -4.097656 2.59375 -4.140625 C 2.535156 -4.183594 2.492188 -4.203125 2.472656 -4.203125 C 2.289062 -4.203125 2.097656 -3.996094 1.894531 -3.582031 C 1.691406 -3.167969 1.589844 -2.855469 1.589844 -2.636719 C 1.589844 -2.523438 1.613281 -2.433594 1.667969 -2.367188 C 1.722656 -2.300781 1.800781 -2.265625 1.910156 -2.265625 Z M 2.304688 -4.523438 C 2.472656 -4.523438 2.648438 -4.460938 2.832031 -4.335938 C 3.019531 -4.210938 3.226562 -4.152344 3.457031 -4.152344 C 3.695312 -4.152344 3.910156 -4.195312 4.105469 -4.289062 C 4.300781 -4.378906 4.464844 -4.488281 4.597656 -4.613281 L 4.851562 -4.613281 L 2.230469 0.0625 L 1.859375 0.0625 L 4.167969 -4.066406 C 4.070312 -4.023438 3.945312 -3.984375 3.800781 -3.949219 C 3.652344 -3.917969 3.515625 -3.898438 3.390625 -3.898438 C 3.355469 -3.898438 3.324219 -3.902344 3.300781 -3.902344 C 3.273438 -3.90625 3.207031 -3.914062 3.097656 -3.933594 C 3.105469 -3.792969 3.109375 -3.738281 3.109375 -3.761719 C 3.109375 -3.402344 2.996094 -3.03125 2.769531 -2.652344 C 2.496094 -2.191406 2.152344 -1.964844 1.738281 -1.964844 C 1.480469 -1.964844 1.265625 -2.050781 1.085938 -2.226562 C 0.90625 -2.402344 0.816406 -2.636719 0.816406 -2.933594 C 0.816406 -3.320312 0.976562 -3.679688 1.292969 -4.015625 C 1.613281 -4.351562 1.949219 -4.523438 2.304688 -4.523438 Z "/>
</g>
</g>
</defs>
<g fill="rgb(98.823529%, 38.431373%, 33.333333%)" fill-opacity="1">
<use xlink:href="#glyph-0-0" x="30" y="25"/>
<use xlink:href="#glyph-0-1" x="32" y="25"/>
<use xlink:href="#glyph-0-2" x="35" y="25"/>
<use xlink:href="#glyph-0-3" x="38" y="25"/>
</g>
</svg>
