<?xml version="1.0" encoding="UTF-8"?>
<svg xmlns="http://www.w3.org/2000/svg" xmlns:xlink="http://www.w3.org/1999/xlink" width="854" height="480" viewBox="0 0 854 480">
<defs>
<g>
<g id="glyph-0-0">
<path d="M 4.367188 -2.621094 L 3.304688 -5.191406 L 3.210938 -5.191406 L 2.207031 -2.621094 Z M 0.199219 -0.28125 C 0.46875 -0.300781 0.683594 -0.421875 0.847656 -0.644531 C 0.953125 -0.785156 1.101562 -1.097656 1.296875 -1.578125 L 3.765625 -7.660156 L 4.074219 -7.660156 L 6.554688 -1.824219 C 6.832031 -1.167969 7.039062 -0.746094 7.175781 -0.554688 C 7.3125 -0.367188 7.511719 -0.273438 7.761719 -0.28125 L 7.761719 0 L 4.167969 0 L 4.167969 -0.28125 C 4.527344 -0.296875 4.765625 -0.328125 4.878906 -0.375 C 4.992188 -0.421875 5.050781 -0.539062 5.050781 -0.730469 C 5.050781 -0.820312 5.023438 -0.953125 4.964844 -1.128906 C 4.929688 -1.234375 4.878906 -1.359375 4.816406 -1.507812 L 4.535156 -2.179688 L 2.039062 -2.179688 C 1.875 -1.738281 1.773438 -1.453125 1.726562 -1.316406 C 1.628906 -1.03125 1.578125 -0.824219 1.578125 -0.695312 C 1.578125 -0.535156 1.683594 -0.417969 1.898438 -0.347656 C 2.023438 -0.308594 2.214844 -0.285156 2.46875 -0.28125 L 2.46875 0 L 0.199219 0 Z "/>
</g>
<g id="glyph-0-1">
<path d="M 2.800781 -0.472656 C 3.039062 -0.472656 3.253906 -0.578125 3.441406 -0.792969 C 3.632812 -1.003906 3.726562 -1.15625 3.726562 -1.242188 L 3.726562 -3.945312 C 3.726562 -4.035156 3.644531 -4.167969 3.484375 -4.34375 C 3.320312 -4.523438 3.105469 -4.609375 2.835938 -4.609375 C 2.441406 -4.609375 2.175781 -4.339844 2.035156 -3.792969 C 1.957031 -3.5 1.921875 -3.085938 1.921875 -2.550781 C 1.921875 -1.980469 1.957031 -1.546875 2.027344 -1.257812 C 2.164062 -0.734375 2.417969 -0.472656 2.800781 -0.472656 Z M 0.28125 -2.402344 C 0.28125 -3.28125 0.492188 -3.976562 0.910156 -4.484375 C 1.328125 -4.992188 1.828125 -5.246094 2.414062 -5.246094 C 2.707031 -5.246094 2.96875 -5.171875 3.195312 -5.027344 C 3.335938 -4.941406 3.511719 -4.785156 3.726562 -4.5625 L 3.726562 -6.597656 C 3.726562 -6.875 3.671875 -7.046875 3.5625 -7.113281 C 3.457031 -7.179688 3.230469 -7.222656 2.890625 -7.238281 L 2.890625 -7.507812 L 5.285156 -7.507812 L 5.285156 -1.117188 C 5.285156 -0.886719 5.328125 -0.726562 5.414062 -0.636719 C 5.5 -0.546875 5.671875 -0.492188 5.925781 -0.472656 L 5.925781 -0.21875 C 5.300781 -0.15625 4.902344 -0.109375 4.71875 -0.078125 C 4.539062 -0.046875 4.21875 0.03125 3.765625 0.15625 L 3.765625 -0.574219 C 3.554688 -0.359375 3.363281 -0.195312 3.191406 -0.09375 C 2.914062 0.0742188 2.617188 0.15625 2.300781 0.15625 C 1.757812 0.15625 1.285156 -0.0742188 0.882812 -0.53125 C 0.480469 -0.992188 0.28125 -1.613281 0.28125 -2.402344 Z "/>
</g>
<g id="glyph-0-2">
<path d="M 0.28125 -1.683594 L 0.589844 -1.683594 C 0.699219 -1.152344 0.902344 -0.773438 1.199219 -0.554688 C 1.496094 -0.335938 1.800781 -0.226562 2.109375 -0.226562 C 2.394531 -0.226562 2.605469 -0.292969 2.738281 -0.421875 C 2.871094 -0.550781 2.941406 -0.71875 2.941406 -0.925781 C 2.941406 -1.125 2.867188 -1.296875 2.722656 -1.4375 C 2.644531 -1.511719 2.515625 -1.59375 2.339844 -1.683594 L 1.511719 -2.082031 C 1.078125 -2.296875 0.769531 -2.527344 0.582031 -2.777344 C 0.390625 -3.027344 0.292969 -3.320312 0.292969 -3.660156 C 0.292969 -4.089844 0.441406 -4.464844 0.742188 -4.777344 C 1.042969 -5.089844 1.464844 -5.246094 2 -5.246094 C 2.234375 -5.246094 2.488281 -5.207031 2.75 -5.128906 C 3.015625 -5.050781 3.179688 -5.011719 3.242188 -5.011719 C 3.332031 -5.011719 3.398438 -5.03125 3.4375 -5.070312 C 3.476562 -5.109375 3.507812 -5.160156 3.53125 -5.230469 L 3.777344 -5.230469 L 3.777344 -3.625 L 3.492188 -3.625 C 3.386719 -4 3.21875 -4.300781 2.976562 -4.53125 C 2.738281 -4.757812 2.460938 -4.871094 2.144531 -4.871094 C 1.898438 -4.871094 1.714844 -4.804688 1.59375 -4.664062 C 1.472656 -4.527344 1.410156 -4.378906 1.410156 -4.21875 C 1.410156 -4.089844 1.464844 -3.960938 1.574219 -3.828125 C 1.679688 -3.695312 1.878906 -3.558594 2.171875 -3.417969 L 2.777344 -3.125 C 3.152344 -2.945312 3.429688 -2.769531 3.601562 -2.597656 C 3.890625 -2.308594 4.035156 -1.953125 4.035156 -1.53125 C 4.035156 -1.117188 3.886719 -0.734375 3.589844 -0.378906 C 3.289062 -0.0195312 2.84375 0.15625 2.246094 0.15625 C 2.097656 0.15625 1.949219 0.140625 1.796875 0.109375 C 1.648438 0.078125 1.464844 0.0273438 1.242188 -0.046875 L 1.050781 -0.113281 C 0.984375 -0.140625 0.941406 -0.152344 0.925781 -0.15625 C 0.910156 -0.160156 0.886719 -0.164062 0.863281 -0.164062 C 0.800781 -0.164062 0.746094 -0.136719 0.703125 -0.0898438 C 0.65625 -0.0390625 0.605469 0.0429688 0.546875 0.15625 L 0.28125 0.15625 Z "/>
</g>
<g id="glyph-0-3">
<rect x="0" y="0" width="0" height="0" mask="url(#mask-0)"/>
</g>
<g id="glyph-0-4">
<path d="M 0.667969 -6.8125 C 0.667969 -7.050781 0.75 -7.257812 0.917969 -7.425781 C 1.085938 -7.59375 1.292969 -7.675781 1.53125 -7.675781 C 1.765625 -7.675781 1.964844 -7.59375 2.132812 -7.425781 C 2.300781 -7.257812 2.386719 -7.050781 2.386719 -6.8125 C 2.386719 -6.574219 2.304688 -6.371094 2.132812 -6.203125 C 1.964844 -6.035156 1.765625 -5.953125 1.53125 -5.953125 C 1.292969 -5.953125 1.085938 -6.035156 0.917969 -6.203125 C 0.75 -6.371094 0.667969 -6.574219 0.667969 -6.8125 Z M 0.179688 -0.265625 C 0.375 -0.296875 0.507812 -0.347656 0.582031 -0.414062 C 0.691406 -0.511719 0.742188 -0.683594 0.742188 -0.9375 L 0.742188 -4.203125 C 0.742188 -4.429688 0.707031 -4.582031 0.628906 -4.664062 C 0.554688 -4.746094 0.402344 -4.804688 0.179688 -4.84375 L 0.179688 -5.117188 L 2.3125 -5.117188 L 2.3125 -0.894531 C 2.3125 -0.652344 2.347656 -0.496094 2.417969 -0.429688 C 2.492188 -0.359375 2.628906 -0.304688 2.828125 -0.265625 L 2.828125 0 L 0.179688 0 Z "/>
</g>
<g id="glyph-0-5">
<path d="M 0.179688 -0.265625 C 0.382812 -0.292969 0.53125 -0.347656 0.625 -0.429688 C 0.722656 -0.515625 0.769531 -0.683594 0.769531 -0.9375 L 0.769531 -4.203125 C 0.769531 -4.429688 0.730469 -4.585938 0.652344 -4.671875 C 0.574219 -4.757812 0.417969 -4.816406 0.179688 -4.84375 L 0.179688 -5.117188 L 2.285156 -5.117188 L 2.285156 -4.316406 C 2.460938 -4.585938 2.6875 -4.808594 2.960938 -4.984375 C 3.234375 -5.160156 3.535156 -5.246094 3.867188 -5.246094 C 4.34375 -5.246094 4.714844 -5.121094 4.976562 -4.878906 C 5.238281 -4.632812 5.371094 -4.199219 5.371094 -3.582031 L 5.371094 -0.894531 C 5.371094 -0.644531 5.414062 -0.484375 5.5 -0.414062 C 5.582031 -0.339844 5.726562 -0.292969 5.925781 -0.265625 L 5.925781 0 L 3.316406 0 L 3.316406 -0.265625 C 3.515625 -0.304688 3.648438 -0.359375 3.722656 -0.429688 C 3.792969 -0.496094 3.828125 -0.652344 3.828125 -0.894531 L 3.828125 -3.585938 C 3.828125 -3.839844 3.804688 -4.027344 3.753906 -4.15625 C 3.667969 -4.382812 3.496094 -4.496094 3.238281 -4.496094 C 3.046875 -4.496094 2.871094 -4.425781 2.710938 -4.289062 C 2.550781 -4.148438 2.425781 -4.007812 2.339844 -3.867188 L 2.339844 -0.894531 C 2.339844 -0.652344 2.375 -0.496094 2.445312 -0.429688 C 2.519531 -0.359375 2.65625 -0.304688 2.855469 -0.265625 L 2.855469 0 L 0.179688 0 Z "/>
</g>
<g id="glyph-0-6">
<path d="M 0.179688 -0.28125 C 0.492188 -0.289062 0.71875 -0.328125 0.855469 -0.394531 C 1.082031 -0.511719 1.195312 -0.734375 1.195312 -1.0625 L 1.195312 -6.4375 C 1.195312 -6.769531 1.085938 -6.988281 0.875 -7.101562 C 0.742188 -7.171875 0.511719 -7.210938 0.179688 -7.226562 L 0.179688 -7.507812 L 4.0625 -7.507812 L 4.0625 -7.226562 C 3.714844 -7.210938 3.476562 -7.171875 3.347656 -7.105469 C 3.128906 -6.996094 3.023438 -6.773438 3.023438 -6.4375 L 3.023438 -1.0625 C 3.023438 -0.753906 3.109375 -0.542969 3.28125 -0.4375 C 3.457031 -0.332031 3.714844 -0.28125 4.0625 -0.28125 L 4.0625 0 L 0.179688 0 Z "/>
</g>
<g id="glyph-0-7">
<path d="M 4.296875 -7.648438 C 4.757812 -7.648438 5.226562 -7.5625 5.703125 -7.390625 C 6.175781 -7.21875 6.4375 -7.132812 6.492188 -7.132812 C 6.632812 -7.132812 6.746094 -7.1875 6.832031 -7.296875 C 6.917969 -7.40625 6.972656 -7.519531 6.992188 -7.636719 L 7.300781 -7.636719 L 7.300781 -5.039062 L 7.019531 -5.039062 C 6.753906 -5.605469 6.480469 -6.050781 6.199219 -6.375 C 5.679688 -6.976562 5.089844 -7.273438 4.433594 -7.273438 C 3.6875 -7.273438 3.160156 -6.953125 2.84375 -6.3125 C 2.53125 -5.671875 2.375 -4.808594 2.375 -3.726562 C 2.375 -2.929688 2.46875 -2.277344 2.652344 -1.761719 C 2.996094 -0.800781 3.632812 -0.320312 4.566406 -0.320312 C 5.140625 -0.320312 5.671875 -0.480469 6.164062 -0.796875 C 6.445312 -0.980469 6.777344 -1.277344 7.160156 -1.683594 L 7.492188 -1.410156 C 7.058594 -0.925781 6.675781 -0.574219 6.347656 -0.359375 C 5.761719 0.0273438 5.109375 0.222656 4.394531 0.222656 C 3.296875 0.222656 2.378906 -0.101562 1.636719 -0.753906 C 0.816406 -1.472656 0.40625 -2.441406 0.40625 -3.660156 C 0.40625 -4.871094 0.800781 -5.847656 1.585938 -6.597656 C 2.324219 -7.296875 3.226562 -7.648438 4.296875 -7.648438 Z "/>
</g>
<g id="glyph-0-8">
<path d="M 0.179688 -0.265625 C 0.382812 -0.292969 0.53125 -0.347656 0.625 -0.429688 C 0.722656 -0.515625 0.769531 -0.683594 0.769531 -0.9375 L 0.769531 -6.597656 C 0.769531 -6.816406 0.730469 -6.972656 0.652344 -7.0625 C 0.570312 -7.148438 0.414062 -7.207031 0.179688 -7.238281 L 0.179688 -7.507812 L 2.328125 -7.507812 L 2.328125 -4.382812 C 2.554688 -4.65625 2.792969 -4.871094 3.046875 -5.019531 C 3.296875 -5.171875 3.582031 -5.246094 3.894531 -5.246094 C 4.320312 -5.246094 4.675781 -5.121094 4.953125 -4.875 C 5.230469 -4.625 5.371094 -4.203125 5.371094 -3.609375 L 5.371094 -0.9375 C 5.371094 -0.6875 5.414062 -0.523438 5.5 -0.449219 C 5.582031 -0.371094 5.726562 -0.308594 5.925781 -0.265625 L 5.925781 0 L 3.316406 0 L 3.316406 -0.265625 C 3.515625 -0.304688 3.648438 -0.359375 3.722656 -0.429688 C 3.792969 -0.496094 3.828125 -0.652344 3.828125 -0.894531 L 3.828125 -3.585938 C 3.828125 -3.839844 3.804688 -4.027344 3.753906 -4.15625 C 3.667969 -4.382812 3.496094 -4.496094 3.238281 -4.496094 C 3.046875 -4.496094 2.847656 -4.410156 2.644531 -4.230469 C 2.441406 -4.054688 2.339844 -3.933594 2.339844 -3.867188 L 2.339844 -0.894531 C 2.339844 -0.652344 2.375 -0.496094 2.445312 -0.429688 C 2.519531 -0.359375 2.65625 -0.304688 2.855469 -0.265625 L 2.855469 0 L 0.179688 0 Z "/>
</g>
<g id="glyph-0-9">
<path d="M 2.4375 -0.632812 C 2.617188 -0.632812 2.785156 -0.6875 2.941406 -0.796875 C 3.027344 -0.863281 3.128906 -0.964844 3.25 -1.101562 L 3.25 -2.722656 C 2.953125 -2.652344 2.691406 -2.535156 2.46875 -2.382812 C 2.089844 -2.117188 1.898438 -1.78125 1.898438 -1.371094 C 1.898438 -1.128906 1.953125 -0.945312 2.0625 -0.820312 C 2.175781 -0.695312 2.296875 -0.632812 2.4375 -0.632812 Z M 0.28125 -1.035156 C 0.28125 -1.535156 0.523438 -1.929688 1.003906 -2.222656 C 1.484375 -2.515625 2.238281 -2.8125 3.265625 -3.109375 L 3.265625 -3.917969 C 3.265625 -4.246094 3.195312 -4.488281 3.058594 -4.648438 C 2.917969 -4.804688 2.671875 -4.882812 2.316406 -4.882812 C 2.117188 -4.882812 1.953125 -4.84375 1.824219 -4.769531 C 1.695312 -4.695312 1.632812 -4.605469 1.632812 -4.492188 C 1.632812 -4.449219 1.640625 -4.414062 1.65625 -4.382812 C 1.667969 -4.355469 1.691406 -4.324219 1.71875 -4.292969 L 1.785156 -4.214844 C 1.835938 -4.152344 1.875 -4.085938 1.90625 -4.011719 C 1.9375 -3.9375 1.953125 -3.859375 1.953125 -3.777344 C 1.953125 -3.566406 1.882812 -3.402344 1.742188 -3.289062 C 1.605469 -3.175781 1.441406 -3.121094 1.257812 -3.121094 C 1.046875 -3.121094 0.863281 -3.183594 0.714844 -3.308594 C 0.5625 -3.4375 0.488281 -3.617188 0.488281 -3.855469 C 0.488281 -4.285156 0.6875 -4.621094 1.089844 -4.871094 C 1.492188 -5.121094 1.984375 -5.246094 2.570312 -5.246094 C 3.199219 -5.246094 3.726562 -5.125 4.148438 -4.882812 C 4.570312 -4.636719 4.78125 -4.183594 4.78125 -3.527344 L 4.78125 -0.835938 C 4.78125 -0.757812 4.800781 -0.6875 4.839844 -0.632812 C 4.882812 -0.578125 4.929688 -0.546875 4.980469 -0.546875 C 5.023438 -0.546875 5.0625 -0.554688 5.097656 -0.574219 C 5.132812 -0.589844 5.183594 -0.632812 5.257812 -0.707031 L 5.425781 -0.472656 C 5.207031 -0.21875 4.96875 -0.0429688 4.703125 0.0585938 C 4.535156 0.125 4.363281 0.15625 4.175781 0.15625 C 3.847656 0.15625 3.609375 0.0625 3.457031 -0.128906 C 3.371094 -0.238281 3.304688 -0.398438 3.265625 -0.613281 C 2.957031 -0.304688 2.609375 -0.0898438 2.222656 0.0390625 C 1.988281 0.117188 1.757812 0.15625 1.53125 0.15625 C 1.226562 0.15625 0.941406 0.0625 0.679688 -0.132812 C 0.414062 -0.328125 0.28125 -0.628906 0.28125 -1.035156 Z "/>
</g>
<g id="glyph-0-10">
<path d="M 0.179688 -4.628906 L 0.179688 -4.9375 C 0.277344 -5.027344 0.398438 -5.132812 0.542969 -5.257812 C 0.734375 -5.433594 0.914062 -5.617188 1.085938 -5.804688 C 1.421875 -6.171875 1.726562 -6.570312 2 -6.992188 L 2.285156 -6.992188 L 2.285156 -5.117188 L 3.339844 -5.117188 L 3.339844 -4.628906 L 2.285156 -4.628906 L 2.285156 -1.285156 C 2.285156 -1.128906 2.308594 -1 2.355469 -0.894531 C 2.425781 -0.730469 2.546875 -0.652344 2.710938 -0.652344 C 2.855469 -0.652344 2.976562 -0.703125 3.074219 -0.804688 C 3.171875 -0.910156 3.269531 -1.050781 3.367188 -1.230469 L 3.632812 -1.101562 C 3.503906 -0.796875 3.347656 -0.550781 3.167969 -0.359375 C 2.851562 -0.0234375 2.460938 0.144531 2 0.144531 C 1.742188 0.144531 1.511719 0.0976562 1.316406 0 C 0.941406 -0.1875 0.753906 -0.53125 0.753906 -1.023438 L 0.753906 -4.628906 Z "/>
</g>
<g id="glyph-0-11">
<path d="M 2.339844 -1.078125 C 2.351562 -0.875 2.390625 -0.710938 2.457031 -0.582031 C 2.585938 -0.328125 2.804688 -0.199219 3.109375 -0.199219 C 3.488281 -0.199219 3.757812 -0.402344 3.914062 -0.804688 C 4.070312 -1.203125 4.148438 -1.773438 4.148438 -2.507812 C 4.148438 -3.089844 4.082031 -3.589844 3.941406 -4.007812 C 3.800781 -4.429688 3.53125 -4.636719 3.125 -4.636719 C 2.886719 -4.636719 2.695312 -4.550781 2.550781 -4.375 C 2.410156 -4.199219 2.339844 -4.074219 2.339844 -4 Z M 2.339844 -7.507812 L 2.339844 -4.628906 C 2.511719 -4.796875 2.671875 -4.925781 2.820312 -5.011719 C 3.09375 -5.167969 3.386719 -5.246094 3.699219 -5.246094 C 4.324219 -5.246094 4.828125 -5 5.210938 -4.511719 C 5.59375 -4.023438 5.78125 -3.425781 5.78125 -2.710938 C 5.78125 -1.792969 5.539062 -1.085938 5.054688 -0.589844 C 4.566406 -0.0898438 3.960938 0.15625 3.238281 0.15625 C 2.941406 0.15625 2.679688 0.0976562 2.453125 -0.015625 C 2.222656 -0.132812 2.011719 -0.285156 1.8125 -0.472656 L 0.9375 0.15625 L 0.78125 0.15625 L 0.78125 -6.597656 C 0.78125 -6.828125 0.738281 -6.984375 0.65625 -7.066406 C 0.574219 -7.148438 0.417969 -7.203125 0.191406 -7.238281 L 0.191406 -7.507812 Z "/>
</g>
<g id="glyph-0-12">
<path d="M 0.242188 -2.542969 C 0.242188 -3.316406 0.480469 -3.964844 0.957031 -4.480469 C 1.433594 -4.996094 2.03125 -5.257812 2.75 -5.257812 C 3.484375 -5.257812 4.085938 -4.992188 4.554688 -4.464844 C 5.023438 -3.9375 5.257812 -3.296875 5.257812 -2.542969 C 5.257812 -1.800781 5.023438 -1.164062 4.5625 -0.632812 C 4.097656 -0.0976562 3.496094 0.167969 2.75 0.167969 C 2.027344 0.167969 1.429688 -0.0898438 0.953125 -0.609375 C 0.480469 -1.128906 0.242188 -1.773438 0.242188 -2.542969 Z M 1.878906 -2.542969 C 1.878906 -1.765625 1.917969 -1.222656 1.996094 -0.910156 C 2.121094 -0.429688 2.375 -0.191406 2.75 -0.191406 C 3.109375 -0.191406 3.34375 -0.375 3.457031 -0.742188 C 3.566406 -1.113281 3.625 -1.710938 3.625 -2.542969 C 3.625 -3.371094 3.566406 -3.972656 3.449219 -4.34375 C 3.332031 -4.714844 3.097656 -4.898438 2.757812 -4.898438 C 2.378906 -4.898438 2.128906 -4.660156 2 -4.175781 C 1.917969 -3.855469 1.878906 -3.3125 1.878906 -2.542969 Z "/>
</g>
<g id="glyph-0-13">
<path d="M 1.671875 -0.78125 C 1.671875 -1.042969 1.761719 -1.261719 1.945312 -1.445312 C 2.128906 -1.628906 2.347656 -1.71875 2.609375 -1.71875 C 2.867188 -1.71875 3.085938 -1.628906 3.269531 -1.445312 C 3.457031 -1.261719 3.546875 -1.042969 3.546875 -0.78125 C 3.546875 -0.519531 3.457031 -0.300781 3.269531 -0.117188 C 3.085938 0.0664062 2.867188 0.15625 2.609375 0.15625 C 2.347656 0.15625 2.128906 0.0664062 1.945312 -0.117188 C 1.761719 -0.300781 1.671875 -0.519531 1.671875 -0.78125 Z M 0.589844 -6.066406 C 0.589844 -6.457031 0.761719 -6.816406 1.105469 -7.148438 C 1.449219 -7.480469 1.972656 -7.648438 2.667969 -7.648438 C 3.367188 -7.648438 3.914062 -7.476562 4.304688 -7.136719 C 4.695312 -6.792969 4.894531 -6.359375 4.894531 -5.828125 C 4.894531 -5.578125 4.855469 -5.355469 4.773438 -5.160156 C 4.628906 -4.800781 4.355469 -4.488281 3.953125 -4.21875 C 3.796875 -4.117188 3.6875 -4.050781 3.628906 -4.011719 C 3.570312 -3.972656 3.453125 -3.902344 3.28125 -3.792969 C 3.105469 -3.683594 2.980469 -3.5625 2.90625 -3.421875 C 2.832031 -3.285156 2.78125 -3 2.761719 -2.570312 L 2.429688 -2.570312 L 2.417969 -3.042969 C 2.417969 -3.363281 2.554688 -3.769531 2.828125 -4.265625 C 3.101562 -4.761719 3.238281 -5.285156 3.238281 -5.835938 C 3.238281 -6.285156 3.160156 -6.632812 3.003906 -6.878906 C 2.847656 -7.125 2.601562 -7.246094 2.257812 -7.246094 C 2.03125 -7.246094 1.871094 -7.199219 1.777344 -7.105469 C 1.679688 -7.007812 1.632812 -6.90625 1.632812 -6.796875 C 1.632812 -6.75 1.640625 -6.710938 1.65625 -6.683594 C 1.667969 -6.65625 1.695312 -6.617188 1.734375 -6.570312 L 1.8125 -6.476562 C 1.894531 -6.375 1.953125 -6.285156 1.988281 -6.199219 C 2.023438 -6.117188 2.039062 -6.011719 2.039062 -5.886719 C 2.039062 -5.679688 1.972656 -5.515625 1.832031 -5.390625 C 1.695312 -5.269531 1.53125 -5.207031 1.339844 -5.207031 C 1.136719 -5.207031 0.960938 -5.28125 0.8125 -5.425781 C 0.664062 -5.574219 0.589844 -5.785156 0.589844 -6.066406 Z "/>
</g>
</g>
<image id="source-8" x="0" y="0" width="0" height="0"/>
<mask id="mask-0">
<use xlink:href="#source-8"/>
</mask>
</defs>
<g fill="rgb(100%, 100%, 100%)" fill-opacity="1">
<use xlink:href="#glyph-0-0" x="30" y="28.333008"/>
<use xlink:href="#glyph-0-1" x="38" y="28.333008"/>
<use xlink:href="#glyph-0-2" x="44" y="28.333008"/>
<use xlink:href="#glyph-0-3" x="48" y="28.333008"/>
<use xlink:href="#glyph-0-4" x="51" y="28.333008"/>
<use xlink:href="#glyph-0-5" x="54" y="28.333008"/>
<use xlink:href="#glyph-0-3" x="60" y="28.333008"/>
<use xlink:href="#glyph-0-0" x="62" y="28.333008"/>
<use xlink:href="#glyph-0-6" x="70" y="28.333008"/>
<use xlink:href="#glyph-0-3" x="74" y="28.333008"/>
<use xlink:href="#glyph-0-7" x="77" y="28.333008"/>
<use xlink:href="#glyph-0-8" x="85" y="28.333008"/>
<use xlink:href="#glyph-0-9" x="91" y="28.333008"/>
<use xlink:href="#glyph-0-10" x="97" y="28.333008"/>
<use xlink:href="#glyph-0-11" x="101" y="28.333008"/>
<use xlink:href="#glyph-0-12" x="107" y="28.333008"/>
<use xlink:href="#glyph-0-10" x="113" y="28.333008"/>
<use xlink:href="#glyph-0-2" x="117" y="28.333008"/>
<use xlink:href="#glyph-0-13" x="121" y="28.333008"/>
</g>
</svg>
