<?xml version="1.0" encoding="UTF-8"?>
<svg xmlns="http://www.w3.org/2000/svg" xmlns:xlink="http://www.w3.org/1999/xlink" width="854" height="480" viewBox="0 0 854 480">
<defs>
<g>
<g id="glyph-0-0">
<path d="M 2.3125 -0.28125 C 2.710938 -0.28125 3.042969 -0.359375 3.3125 -0.511719 C 3.582031 -0.667969 3.714844 -0.964844 3.714844 -1.402344 C 3.714844 -1.835938 3.558594 -2.132812 3.242188 -2.292969 C 2.929688 -2.453125 2.527344 -2.53125 2.042969 -2.53125 C 1.925781 -2.53125 1.847656 -2.53125 1.816406 -2.53125 C 1.785156 -2.53125 1.738281 -2.535156 1.671875 -2.535156 L 1.671875 -0.601562 C 1.671875 -0.464844 1.707031 -0.378906 1.785156 -0.339844 C 1.859375 -0.300781 2.035156 -0.28125 2.3125 -0.28125 Z M 0.132812 -0.140625 C 0.445312 -0.160156 0.648438 -0.207031 0.742188 -0.285156 C 0.835938 -0.367188 0.882812 -0.550781 0.882812 -0.84375 L 0.882812 -4.300781 C 0.882812 -4.589844 0.835938 -4.773438 0.742188 -4.855469 C 0.648438 -4.9375 0.445312 -4.984375 0.132812 -5 L 0.132812 -5.144531 L 2.3125 -5.144531 C 2.933594 -5.144531 3.429688 -5.046875 3.796875 -4.84375 C 4.160156 -4.644531 4.34375 -4.300781 4.34375 -3.8125 C 4.34375 -3.445312 4.214844 -3.167969 3.960938 -2.976562 C 3.816406 -2.867188 3.601562 -2.777344 3.3125 -2.707031 C 3.667969 -2.621094 3.972656 -2.476562 4.226562 -2.277344 C 4.480469 -2.074219 4.605469 -1.792969 4.605469 -1.433594 C 4.605469 -0.824219 4.324219 -0.40625 3.761719 -0.179688 C 3.464844 -0.0585938 3.101562 0 2.667969 0 L 0.132812 0 Z M 2.410156 -2.84375 C 2.671875 -2.847656 2.886719 -2.890625 3.0625 -2.96875 C 3.390625 -3.121094 3.554688 -3.394531 3.554688 -3.785156 C 3.554688 -4.25 3.363281 -4.5625 2.984375 -4.722656 C 2.773438 -4.8125 2.457031 -4.855469 2.027344 -4.855469 C 1.867188 -4.855469 1.765625 -4.84375 1.726562 -4.816406 C 1.691406 -4.789062 1.671875 -4.710938 1.671875 -4.585938 L 1.671875 -2.832031 Z "/>
</g>
<g id="glyph-0-1">
<path d="M 1.78125 -3.5625 C 2.136719 -3.5625 2.449219 -3.4375 2.71875 -3.191406 C 2.988281 -2.945312 3.121094 -2.59375 3.121094 -2.140625 L 0.710938 -2.140625 C 0.734375 -1.554688 0.867188 -1.125 1.109375 -0.859375 C 1.347656 -0.589844 1.632812 -0.457031 1.964844 -0.457031 C 2.230469 -0.457031 2.453125 -0.523438 2.636719 -0.664062 C 2.816406 -0.804688 2.984375 -1 3.140625 -1.257812 L 3.273438 -1.210938 C 3.167969 -0.890625 2.976562 -0.59375 2.691406 -0.320312 C 2.40625 -0.046875 2.058594 0.0898438 1.644531 0.0898438 C 1.167969 0.0898438 0.800781 -0.0898438 0.542969 -0.449219 C 0.28125 -0.808594 0.152344 -1.222656 0.152344 -1.691406 C 0.152344 -2.199219 0.300781 -2.636719 0.605469 -3.007812 C 0.90625 -3.378906 1.296875 -3.5625 1.78125 -3.5625 Z M 1.5625 -3.285156 C 1.273438 -3.285156 1.050781 -3.15625 0.898438 -2.902344 C 0.820312 -2.765625 0.761719 -2.59375 0.726562 -2.386719 L 2.328125 -2.386719 C 2.300781 -2.636719 2.25 -2.828125 2.183594 -2.949219 C 2.058594 -3.171875 1.851562 -3.285156 1.5625 -3.285156 Z "/>
</g>
<g id="glyph-0-2">
<path d="M 0.152344 -0.105469 C 0.421875 -0.117188 0.597656 -0.167969 0.683594 -0.257812 C 0.765625 -0.34375 0.808594 -0.527344 0.808594 -0.808594 L 0.808594 -3.246094 L 0.160156 -3.246094 L 0.160156 -3.5 L 0.808594 -3.5 C 0.808594 -3.902344 0.863281 -4.238281 0.972656 -4.515625 C 1.179688 -5.042969 1.5625 -5.308594 2.113281 -5.308594 C 2.335938 -5.308594 2.539062 -5.265625 2.714844 -5.175781 C 2.890625 -5.085938 2.976562 -4.96875 2.976562 -4.820312 C 2.976562 -4.734375 2.945312 -4.660156 2.886719 -4.59375 C 2.824219 -4.527344 2.75 -4.496094 2.664062 -4.496094 C 2.59375 -4.496094 2.527344 -4.519531 2.476562 -4.5625 C 2.421875 -4.605469 2.359375 -4.683594 2.285156 -4.796875 L 2.222656 -4.894531 C 2.1875 -4.949219 2.144531 -4.992188 2.097656 -5.03125 C 2.046875 -5.066406 1.980469 -5.085938 1.894531 -5.085938 C 1.703125 -5.085938 1.570312 -4.988281 1.503906 -4.800781 C 1.464844 -4.699219 1.445312 -4.566406 1.445312 -4.402344 L 1.445312 -3.5 L 2.398438 -3.5 L 2.398438 -3.246094 L 1.453125 -3.246094 L 1.453125 -0.808594 C 1.453125 -0.523438 1.492188 -0.339844 1.570312 -0.261719 C 1.648438 -0.179688 1.847656 -0.128906 2.175781 -0.105469 L 2.175781 0 L 0.152344 0 Z "/>
</g>
<g id="glyph-0-3">
<path d="M 0.199219 -1.761719 C 0.199219 -2.265625 0.359375 -2.691406 0.679688 -3.039062 C 1 -3.386719 1.410156 -3.5625 1.914062 -3.5625 C 2.414062 -3.5625 2.832031 -3.398438 3.160156 -3.070312 C 3.488281 -2.738281 3.652344 -2.300781 3.652344 -1.753906 C 3.652344 -1.25 3.492188 -0.8125 3.175781 -0.441406 C 2.855469 -0.0703125 2.441406 0.117188 1.9375 0.117188 C 1.449219 0.117188 1.039062 -0.0625 0.703125 -0.417969 C 0.367188 -0.773438 0.199219 -1.222656 0.199219 -1.761719 Z M 1.808594 -3.335938 C 1.609375 -3.335938 1.433594 -3.269531 1.289062 -3.136719 C 1.035156 -2.90625 0.90625 -2.507812 0.90625 -1.945312 C 0.90625 -1.492188 1.007812 -1.074219 1.214844 -0.683594 C 1.417969 -0.292969 1.699219 -0.0976562 2.0625 -0.0976562 C 2.347656 -0.0976562 2.5625 -0.230469 2.71875 -0.488281 C 2.871094 -0.75 2.945312 -1.09375 2.945312 -1.515625 C 2.945312 -1.953125 2.847656 -2.367188 2.65625 -2.753906 C 2.460938 -3.140625 2.175781 -3.335938 1.808594 -3.335938 Z "/>
</g>
<g id="glyph-0-4">
<path d="M 0.0351562 -0.125 C 0.265625 -0.144531 0.421875 -0.1875 0.496094 -0.25 C 0.574219 -0.3125 0.613281 -0.441406 0.613281 -0.644531 L 0.613281 -2.359375 C 0.613281 -2.609375 0.589844 -2.789062 0.542969 -2.894531 C 0.496094 -3.003906 0.410156 -3.058594 0.285156 -3.058594 C 0.257812 -3.058594 0.226562 -3.054688 0.183594 -3.046875 C 0.140625 -3.039062 0.0976562 -3.03125 0.0546875 -3.023438 L 0.0546875 -3.148438 C 0.199219 -3.199219 0.34375 -3.25 0.496094 -3.304688 C 0.648438 -3.355469 0.753906 -3.394531 0.8125 -3.417969 C 0.9375 -3.464844 1.070312 -3.519531 1.203125 -3.582031 C 1.222656 -3.582031 1.230469 -3.574219 1.234375 -3.5625 C 1.238281 -3.550781 1.242188 -3.523438 1.242188 -3.480469 L 1.242188 -2.859375 C 1.402344 -3.085938 1.558594 -3.261719 1.710938 -3.386719 C 1.863281 -3.515625 2.019531 -3.578125 2.179688 -3.578125 C 2.308594 -3.578125 2.414062 -3.539062 2.496094 -3.460938 C 2.578125 -3.382812 2.617188 -3.289062 2.617188 -3.171875 C 2.617188 -3.066406 2.585938 -2.980469 2.523438 -2.910156 C 2.460938 -2.839844 2.382812 -2.800781 2.289062 -2.800781 C 2.195312 -2.800781 2.097656 -2.847656 2 -2.933594 C 1.902344 -3.023438 1.824219 -3.070312 1.769531 -3.070312 C 1.679688 -3.070312 1.570312 -2.996094 1.441406 -2.855469 C 1.3125 -2.710938 1.25 -2.5625 1.25 -2.410156 L 1.25 -0.699219 C 1.25 -0.480469 1.300781 -0.328125 1.402344 -0.246094 C 1.503906 -0.160156 1.671875 -0.121094 1.90625 -0.125 L 1.90625 0 L 0.0351562 0 Z "/>
</g>
</g>
</defs>
<g fill="rgb(98.823529%, 38.431373%, 33.333333%)" fill-opacity="1">
<use xlink:href="#glyph-0-0" x="30" y="25.833008"/>
<use xlink:href="#glyph-0-1" x="35" y="25.833008"/>
<use xlink:href="#glyph-0-2" x="38" y="25.833008"/>
<use xlink:href="#glyph-0-3" x="41" y="25.833008"/>
<use xlink:href="#glyph-0-4" x="45" y="25.833008"/>
<use xlink:href="#glyph-0-1" x="48" y="25.833008"/>
</g>
</svg>
