<?xml version="1.0" encoding="UTF-8"?>
<svg xmlns="http://www.w3.org/2000/svg" xmlns:xlink="http://www.w3.org/1999/xlink" width="854" height="480" viewBox="0 0 854 480">
<defs>
<g>
<g id="glyph-0-0">
<path d="M 0.0859375 -0.140625 C 0.371094 -0.171875 0.558594 -0.222656 0.644531 -0.292969 C 0.730469 -0.367188 0.769531 -0.550781 0.769531 -0.84375 L 0.769531 -4.300781 C 0.769531 -4.578125 0.730469 -4.757812 0.644531 -4.84375 C 0.5625 -4.929688 0.375 -4.980469 0.0859375 -5 L 0.0859375 -5.144531 L 4.21875 -5.144531 L 4.246094 -4.027344 L 4.046875 -4.027344 C 3.980469 -4.371094 3.882812 -4.597656 3.753906 -4.699219 C 3.621094 -4.800781 3.328125 -4.847656 2.871094 -4.847656 L 1.816406 -4.847656 C 1.703125 -4.847656 1.632812 -4.832031 1.605469 -4.792969 C 1.578125 -4.757812 1.566406 -4.6875 1.566406 -4.585938 L 1.566406 -2.851562 L 2.761719 -2.851562 C 3.09375 -2.851562 3.304688 -2.902344 3.394531 -3 C 3.484375 -3.097656 3.558594 -3.296875 3.617188 -3.601562 L 3.796875 -3.601562 L 3.796875 -1.800781 L 3.617188 -1.800781 C 3.558594 -2.101562 3.480469 -2.300781 3.390625 -2.398438 C 3.300781 -2.496094 3.089844 -2.542969 2.761719 -2.542969 L 1.566406 -2.542969 L 1.566406 -0.617188 C 1.566406 -0.464844 1.613281 -0.375 1.710938 -0.34375 C 1.808594 -0.316406 2.101562 -0.304688 2.585938 -0.304688 C 3.113281 -0.304688 3.5 -0.363281 3.753906 -0.476562 C 4.003906 -0.589844 4.226562 -0.871094 4.429688 -1.3125 L 4.644531 -1.3125 L 4.292969 0 L 0.0859375 0 Z "/>
</g>
<g id="glyph-0-1">
<path d="M 2.878906 -5.238281 C 3.160156 -5.238281 3.449219 -5.195312 3.746094 -5.113281 C 4.042969 -5.027344 4.207031 -4.984375 4.242188 -4.984375 C 4.316406 -4.984375 4.386719 -5.007812 4.449219 -5.046875 C 4.515625 -5.085938 4.5625 -5.152344 4.585938 -5.238281 L 4.75 -5.238281 L 4.824219 -3.488281 L 4.644531 -3.488281 C 4.539062 -3.835938 4.40625 -4.117188 4.238281 -4.328125 C 3.917969 -4.730469 3.488281 -4.929688 2.949219 -4.929688 C 2.40625 -4.929688 1.960938 -4.714844 1.617188 -4.285156 C 1.269531 -3.855469 1.097656 -3.261719 1.097656 -2.507812 C 1.097656 -1.8125 1.277344 -1.257812 1.640625 -0.84375 C 2.003906 -0.429688 2.464844 -0.222656 3.023438 -0.222656 C 3.425781 -0.222656 3.796875 -0.320312 4.136719 -0.511719 C 4.332031 -0.621094 4.542969 -0.785156 4.777344 -1.007812 L 4.921875 -0.863281 C 4.75 -0.644531 4.535156 -0.453125 4.28125 -0.289062 C 3.84375 -0.0117188 3.371094 0.128906 2.863281 0.128906 C 2.027344 0.128906 1.363281 -0.136719 0.875 -0.671875 C 0.421875 -1.164062 0.195312 -1.78125 0.195312 -2.523438 C 0.195312 -3.277344 0.433594 -3.914062 0.910156 -4.429688 C 1.414062 -4.96875 2.070312 -5.238281 2.878906 -5.238281 Z "/>
</g>
<g id="glyph-0-2">
<rect x="0" y="0" width="0" height="0" mask="url(#mask-0)"/>
</g>
<g id="glyph-0-3">
<path d="M 1.671875 -3.527344 L 1.671875 -3.410156 C 1.539062 -3.394531 1.445312 -3.375 1.390625 -3.347656 C 1.335938 -3.324219 1.308594 -3.269531 1.308594 -3.183594 C 1.308594 -3.140625 1.316406 -3.101562 1.328125 -3.066406 C 1.339844 -3.03125 1.359375 -2.976562 1.386719 -2.90625 L 2.175781 -0.941406 L 2.859375 -2.679688 C 2.890625 -2.765625 2.921875 -2.851562 2.953125 -2.941406 C 2.980469 -3.035156 2.996094 -3.105469 2.996094 -3.152344 C 2.996094 -3.25 2.949219 -3.320312 2.855469 -3.363281 C 2.800781 -3.386719 2.722656 -3.402344 2.628906 -3.410156 L 2.628906 -3.527344 L 3.707031 -3.527344 L 3.707031 -3.410156 C 3.582031 -3.398438 3.492188 -3.359375 3.4375 -3.285156 C 3.382812 -3.214844 3.304688 -3.046875 3.203125 -2.789062 L 2.105469 -0.0546875 C 2.085938 -0.00390625 2.066406 0.0273438 2.054688 0.046875 C 2.042969 0.0625 2.023438 0.0703125 2 0.0703125 C 1.976562 0.0703125 1.953125 0.0585938 1.9375 0.0273438 C 1.917969 0 1.898438 -0.0351562 1.878906 -0.078125 L 0.71875 -2.859375 C 0.625 -3.085938 0.523438 -3.238281 0.417969 -3.320312 C 0.355469 -3.363281 0.261719 -3.394531 0.140625 -3.410156 L 0.140625 -3.527344 Z "/>
</g>
<g id="glyph-0-4">
<path d="M 0.402344 -1.195312 L 0.527344 -1.195312 C 0.585938 -0.90625 0.664062 -0.6875 0.761719 -0.53125 C 0.941406 -0.246094 1.199219 -0.105469 1.542969 -0.105469 C 1.730469 -0.105469 1.882812 -0.160156 1.992188 -0.265625 C 2.101562 -0.371094 2.15625 -0.503906 2.15625 -0.671875 C 2.15625 -0.777344 2.125 -0.882812 2.0625 -0.980469 C 2 -1.078125 1.886719 -1.175781 1.726562 -1.269531 L 1.300781 -1.511719 C 0.992188 -1.679688 0.761719 -1.847656 0.613281 -2.015625 C 0.46875 -2.1875 0.394531 -2.386719 0.394531 -2.617188 C 0.394531 -2.898438 0.496094 -3.132812 0.699219 -3.316406 C 0.902344 -3.496094 1.15625 -3.589844 1.460938 -3.589844 C 1.597656 -3.589844 1.742188 -3.5625 1.90625 -3.511719 C 2.066406 -3.460938 2.15625 -3.4375 2.175781 -3.4375 C 2.222656 -3.4375 2.253906 -3.441406 2.273438 -3.457031 C 2.292969 -3.46875 2.3125 -3.488281 2.328125 -3.515625 L 2.417969 -3.515625 L 2.445312 -2.457031 L 2.328125 -2.457031 C 2.277344 -2.703125 2.207031 -2.894531 2.121094 -3.03125 C 1.964844 -3.285156 1.738281 -3.410156 1.441406 -3.410156 C 1.265625 -3.410156 1.125 -3.355469 1.023438 -3.246094 C 0.921875 -3.136719 0.875 -3.011719 0.875 -2.863281 C 0.875 -2.628906 1.046875 -2.421875 1.398438 -2.242188 L 1.898438 -1.972656 C 2.4375 -1.679688 2.707031 -1.335938 2.707031 -0.945312 C 2.707031 -0.648438 2.59375 -0.402344 2.371094 -0.210938 C 2.148438 -0.0234375 1.855469 0.0703125 1.492188 0.0703125 C 1.339844 0.0703125 1.167969 0.046875 0.976562 -0.00390625 C 0.785156 -0.0546875 0.667969 -0.078125 0.632812 -0.078125 C 0.601562 -0.078125 0.578125 -0.0703125 0.554688 -0.046875 C 0.53125 -0.0273438 0.515625 0 0.5 0.03125 L 0.402344 0.03125 Z "/>
</g>
<g id="glyph-0-5">
<path d="M 2.3125 -0.28125 C 2.710938 -0.28125 3.042969 -0.359375 3.3125 -0.511719 C 3.582031 -0.667969 3.714844 -0.964844 3.714844 -1.402344 C 3.714844 -1.835938 3.558594 -2.132812 3.242188 -2.292969 C 2.929688 -2.453125 2.527344 -2.53125 2.042969 -2.53125 C 1.925781 -2.53125 1.847656 -2.53125 1.816406 -2.53125 C 1.785156 -2.53125 1.738281 -2.535156 1.671875 -2.535156 L 1.671875 -0.601562 C 1.671875 -0.464844 1.707031 -0.378906 1.785156 -0.339844 C 1.859375 -0.300781 2.035156 -0.28125 2.3125 -0.28125 Z M 0.132812 -0.140625 C 0.445312 -0.160156 0.648438 -0.207031 0.742188 -0.285156 C 0.835938 -0.367188 0.882812 -0.550781 0.882812 -0.84375 L 0.882812 -4.300781 C 0.882812 -4.589844 0.835938 -4.773438 0.742188 -4.855469 C 0.648438 -4.9375 0.445312 -4.984375 0.132812 -5 L 0.132812 -5.144531 L 2.3125 -5.144531 C 2.933594 -5.144531 3.429688 -5.046875 3.796875 -4.84375 C 4.160156 -4.644531 4.34375 -4.300781 4.34375 -3.8125 C 4.34375 -3.445312 4.214844 -3.167969 3.960938 -2.976562 C 3.816406 -2.867188 3.601562 -2.777344 3.3125 -2.707031 C 3.667969 -2.621094 3.972656 -2.476562 4.226562 -2.277344 C 4.480469 -2.074219 4.605469 -1.792969 4.605469 -1.433594 C 4.605469 -0.824219 4.324219 -0.40625 3.761719 -0.179688 C 3.464844 -0.0585938 3.101562 0 2.667969 0 L 0.132812 0 Z M 2.410156 -2.84375 C 2.671875 -2.847656 2.886719 -2.890625 3.0625 -2.96875 C 3.390625 -3.121094 3.554688 -3.394531 3.554688 -3.785156 C 3.554688 -4.25 3.363281 -4.5625 2.984375 -4.722656 C 2.773438 -4.8125 2.457031 -4.855469 2.027344 -4.855469 C 1.867188 -4.855469 1.765625 -4.84375 1.726562 -4.816406 C 1.691406 -4.789062 1.671875 -4.710938 1.671875 -4.585938 L 1.671875 -2.832031 Z "/>
</g>
<g id="glyph-0-6">
<path d="M 3.472656 -1.996094 L 2.570312 -4.140625 L 1.683594 -1.996094 Z M 0.113281 0 L 0.113281 -0.140625 C 0.3125 -0.164062 0.464844 -0.238281 0.5625 -0.367188 C 0.664062 -0.496094 0.835938 -0.847656 1.078125 -1.421875 L 2.699219 -5.238281 L 2.851562 -5.238281 L 4.789062 -0.828125 C 4.917969 -0.535156 5.019531 -0.351562 5.097656 -0.28125 C 5.175781 -0.210938 5.304688 -0.164062 5.488281 -0.140625 L 5.488281 0 L 3.507812 0 L 3.507812 -0.140625 C 3.738281 -0.160156 3.882812 -0.183594 3.949219 -0.214844 C 4.015625 -0.242188 4.046875 -0.316406 4.046875 -0.429688 C 4.046875 -0.46875 4.035156 -0.535156 4.011719 -0.628906 C 3.984375 -0.726562 3.949219 -0.828125 3.902344 -0.933594 L 3.582031 -1.683594 L 1.546875 -1.683594 C 1.34375 -1.175781 1.222656 -0.863281 1.183594 -0.75 C 1.144531 -0.636719 1.125 -0.546875 1.125 -0.480469 C 1.125 -0.351562 1.175781 -0.257812 1.285156 -0.207031 C 1.351562 -0.179688 1.472656 -0.15625 1.65625 -0.140625 L 1.65625 0 Z "/>
</g>
<g id="glyph-0-7">
<path d="M 0.5 -1.566406 C 0.632812 -1.214844 0.789062 -0.9375 0.964844 -0.730469 C 1.273438 -0.367188 1.65625 -0.1875 2.113281 -0.1875 C 2.363281 -0.1875 2.578125 -0.265625 2.757812 -0.421875 C 2.941406 -0.578125 3.03125 -0.796875 3.03125 -1.078125 C 3.03125 -1.332031 2.9375 -1.550781 2.757812 -1.738281 C 2.636719 -1.859375 2.386719 -2.035156 2.003906 -2.273438 L 1.339844 -2.6875 C 1.140625 -2.816406 0.980469 -2.941406 0.863281 -3.070312 C 0.640625 -3.316406 0.53125 -3.589844 0.53125 -3.886719 C 0.53125 -4.277344 0.660156 -4.605469 0.921875 -4.863281 C 1.183594 -5.125 1.527344 -5.253906 1.960938 -5.253906 C 2.136719 -5.253906 2.351562 -5.210938 2.597656 -5.125 C 2.847656 -5.039062 2.992188 -4.992188 3.027344 -4.992188 C 3.125 -4.992188 3.1875 -5.015625 3.226562 -5.0625 C 3.261719 -5.109375 3.292969 -5.171875 3.3125 -5.253906 L 3.472656 -5.253906 L 3.640625 -3.601562 L 3.457031 -3.601562 C 3.328125 -4.097656 3.125 -4.445312 2.847656 -4.644531 C 2.566406 -4.84375 2.289062 -4.941406 2.015625 -4.941406 C 1.804688 -4.941406 1.617188 -4.878906 1.460938 -4.753906 C 1.300781 -4.628906 1.222656 -4.453125 1.222656 -4.230469 C 1.222656 -4.03125 1.285156 -3.859375 1.40625 -3.71875 C 1.527344 -3.574219 1.714844 -3.421875 1.972656 -3.265625 L 2.65625 -2.84375 C 3.082031 -2.582031 3.382812 -2.339844 3.558594 -2.117188 C 3.730469 -1.894531 3.816406 -1.632812 3.816406 -1.328125 C 3.816406 -0.921875 3.664062 -0.582031 3.355469 -0.308594 C 3.046875 -0.0351562 2.65625 0.101562 2.175781 0.101562 C 1.933594 0.101562 1.683594 0.0585938 1.421875 -0.0351562 C 1.160156 -0.125 1.011719 -0.171875 0.972656 -0.171875 C 0.882812 -0.171875 0.820312 -0.144531 0.789062 -0.0859375 C 0.757812 -0.03125 0.734375 0.0273438 0.726562 0.0898438 L 0.554688 0.0898438 L 0.324219 -1.566406 Z "/>
</g>
</g>
<image id="source-36" x="0" y="0" width="0" height="0"/>
<mask id="mask-0">
<use xlink:href="#source-36"/>
</mask>
</defs>
<g fill="rgb(100%, 100%, 0%)" fill-opacity="1">
<use xlink:href="#glyph-0-0" x="30" y="25.833008"/>
<use xlink:href="#glyph-0-1" x="35" y="25.833008"/>
<use xlink:href="#glyph-0-0" x="40" y="25.833008"/>
<use xlink:href="#glyph-0-2" x="45" y="25.833008"/>
<use xlink:href="#glyph-0-3" x="47" y="25.833008"/>
<use xlink:href="#glyph-0-4" x="51" y="25.833008"/>
<use xlink:href="#glyph-0-2" x="54" y="25.833008"/>
<use xlink:href="#glyph-0-5" x="56" y="25.833008"/>
<use xlink:href="#glyph-0-6" x="61" y="25.833008"/>
<use xlink:href="#glyph-0-7" x="67" y="25.833008"/>
</g>
</svg>
