<?xml version="1.0" encoding="UTF-8"?>
<svg xmlns="http://www.w3.org/2000/svg" xmlns:xlink="http://www.w3.org/1999/xlink" width="854" height="480" viewBox="0 0 854 480">
<defs>
<g>
<g id="glyph-0-0">
<path d="M 0.519531 -0.566406 C 0.636719 -0.566406 0.792969 -0.503906 0.992188 -0.382812 C 1.1875 -0.257812 1.355469 -0.195312 1.492188 -0.195312 C 1.796875 -0.195312 2.019531 -0.296875 2.167969 -0.503906 C 2.316406 -0.707031 2.390625 -0.929688 2.390625 -1.171875 C 2.390625 -1.402344 2.328125 -1.609375 2.210938 -1.785156 C 2.007812 -2.082031 1.667969 -2.230469 1.1875 -2.230469 C 1.160156 -2.230469 1.132812 -2.230469 1.105469 -2.226562 C 1.082031 -2.226562 1.050781 -2.222656 1.015625 -2.21875 L 1.007812 -2.304688 C 1.355469 -2.429688 1.628906 -2.574219 1.828125 -2.738281 C 2.027344 -2.902344 2.128906 -3.117188 2.128906 -3.382812 C 2.128906 -3.617188 2.050781 -3.800781 1.894531 -3.921875 C 1.734375 -4.046875 1.554688 -4.109375 1.355469 -4.109375 C 1.117188 -4.109375 0.90625 -4.019531 0.722656 -3.84375 C 0.621094 -3.75 0.515625 -3.601562 0.402344 -3.402344 L 0.300781 -3.425781 C 0.386719 -3.753906 0.546875 -4.019531 0.785156 -4.214844 C 1.019531 -4.414062 1.292969 -4.511719 1.605469 -4.511719 C 1.9375 -4.511719 2.195312 -4.421875 2.375 -4.238281 C 2.554688 -4.054688 2.648438 -3.84375 2.648438 -3.605469 C 2.648438 -3.394531 2.570312 -3.203125 2.421875 -3.027344 C 2.335938 -2.925781 2.207031 -2.816406 2.027344 -2.691406 C 2.234375 -2.601562 2.402344 -2.5 2.53125 -2.378906 C 2.765625 -2.152344 2.882812 -1.863281 2.882812 -1.515625 C 2.882812 -1.101562 2.722656 -0.738281 2.398438 -0.421875 C 2.074219 -0.109375 1.613281 0.0507812 1.011719 0.0507812 C 0.746094 0.0507812 0.558594 0.0078125 0.449219 -0.0703125 C 0.34375 -0.148438 0.289062 -0.234375 0.289062 -0.324219 C 0.289062 -0.382812 0.308594 -0.4375 0.34375 -0.488281 C 0.378906 -0.539062 0.4375 -0.566406 0.519531 -0.566406 Z "/>
</g>
<g id="glyph-0-1">
<path d="M 1.84375 -4.410156 C 1.976562 -4.410156 2.085938 -4.394531 2.171875 -4.359375 C 2.21875 -4.339844 2.261719 -4.3125 2.304688 -4.273438 L 2.429688 -4.164062 C 2.480469 -4.121094 2.550781 -4.089844 2.640625 -4.074219 C 2.730469 -4.054688 2.824219 -4.046875 2.921875 -4.046875 C 3.171875 -4.046875 3.398438 -4.105469 3.609375 -4.230469 C 3.722656 -4.292969 3.839844 -4.382812 3.964844 -4.503906 L 4.226562 -4.503906 L 1.65625 0.09375 L 1.339844 0.09375 L 3.664062 -4.074219 C 3.5 -3.996094 3.378906 -3.945312 3.296875 -3.921875 C 3.21875 -3.898438 3.109375 -3.886719 2.980469 -3.886719 C 2.863281 -3.886719 2.761719 -3.894531 2.675781 -3.910156 C 2.621094 -3.917969 2.566406 -3.929688 2.511719 -3.949219 C 2.53125 -3.890625 2.542969 -3.84375 2.550781 -3.804688 C 2.554688 -3.765625 2.558594 -3.707031 2.558594 -3.625 C 2.558594 -3.234375 2.429688 -2.855469 2.167969 -2.480469 C 1.90625 -2.109375 1.585938 -1.925781 1.203125 -1.925781 C 1.003906 -1.925781 0.820312 -2 0.65625 -2.15625 C 0.488281 -2.308594 0.40625 -2.535156 0.40625 -2.832031 C 0.40625 -3.191406 0.550781 -3.542969 0.84375 -3.890625 C 1.132812 -4.238281 1.46875 -4.410156 1.84375 -4.410156 Z M 3.9375 -0.199219 C 4.203125 -0.199219 4.441406 -0.371094 4.652344 -0.71875 C 4.863281 -1.0625 4.972656 -1.382812 4.972656 -1.679688 C 4.972656 -1.863281 4.925781 -2.003906 4.835938 -2.105469 C 4.746094 -2.207031 4.632812 -2.257812 4.488281 -2.257812 C 4.230469 -2.257812 4 -2.0625 3.800781 -1.667969 C 3.597656 -1.273438 3.496094 -0.929688 3.496094 -0.640625 C 3.496094 -0.496094 3.539062 -0.386719 3.621094 -0.3125 C 3.703125 -0.238281 3.808594 -0.199219 3.9375 -0.199219 Z M 2.992188 -0.910156 C 2.992188 -1.285156 3.140625 -1.636719 3.4375 -1.972656 C 3.738281 -2.304688 4.066406 -2.472656 4.429688 -2.472656 C 4.617188 -2.472656 4.785156 -2.414062 4.933594 -2.300781 C 5.078125 -2.1875 5.148438 -1.980469 5.148438 -1.671875 C 5.148438 -1.34375 5.027344 -0.984375 4.777344 -0.585938 C 4.53125 -0.1875 4.203125 0.0117188 3.800781 0.0117188 C 3.582031 0.0117188 3.390625 -0.0664062 3.230469 -0.214844 C 3.070312 -0.363281 2.992188 -0.59375 2.992188 -0.910156 Z M 1.324219 -2.152344 C 1.589844 -2.152344 1.835938 -2.3125 2.058594 -2.636719 C 2.277344 -2.960938 2.390625 -3.3125 2.390625 -3.695312 C 2.390625 -3.832031 2.375 -3.917969 2.34375 -3.957031 C 2.316406 -3.996094 2.265625 -4.027344 2.191406 -4.042969 C 2.140625 -4.054688 2.078125 -4.089844 2.007812 -4.140625 C 1.9375 -4.191406 1.894531 -4.214844 1.878906 -4.214844 C 1.667969 -4.214844 1.453125 -4.027344 1.234375 -3.652344 C 1.015625 -3.273438 0.910156 -2.925781 0.910156 -2.609375 C 0.910156 -2.46875 0.941406 -2.355469 1.011719 -2.273438 C 1.078125 -2.191406 1.183594 -2.152344 1.324219 -2.152344 Z "/>
</g>
</g>
</defs>
<g fill="rgb(98.823529%, 38.431373%, 33.333333%)" fill-opacity="1">
<use xlink:href="#glyph-0-0" x="30" y="25"/>
<use xlink:href="#glyph-0-0" x="33" y="25"/>
<use xlink:href="#glyph-0-1" x="36" y="25"/>
</g>
</svg>
